<svg xmlns="http://www.w3.org/2000/svg" viewBox="0 0 416 300" aria-hidden="true" class="illustrations-module-scss-module__fHqUcG__fillBrandRed"><path d="M146.411 292.784c.253.085.503.232.759.246.642.035 1.288.071 1.929-.101a4 4 0 0 1 1.922-.02c.545.123 1.063.021 1.592.015.32-.005.649-.111.961-.071 1.022.134 2.037-.037 3.056-.024.971.011 1.942.008 2.911.008q1.536 0 3.072-.007l8.41-.017c.054 0 .109.003.162 0 .693-.039 1.364.177 2.081.056.734-.124 1.505-.045 2.26-.048.701-.003 1.401.006 2.104.005.702-.002 1.401-.013 2.101-.013l10.675.017c.271 0 .539.012.809.01l13.748-.03c2.264-.005 4.529-.013 6.792-.012 3.882.003 7.763.02 11.645.02 1.833 0 3.666-.029 5.499-.036.537-.001 1.079-.056 1.605.114a.6.6 0 0 0 .312.028c1.121-.235 2.257-.132 3.385-.139 2.804-.012 5.606.021 8.41.021 3.019 0 6.038-.017 9.058-.021q6.469-.004 12.938-.004c7.548-.004 15.096-.012 22.643-.007 4.152.003 8.302.039 12.454.042 3.342.003 6.685-.031 10.028-.032q12.371-.002 24.746.013c2.21.001 4.421.024 6.631.038.747.005 1.493.147 2.244.01.207-.037.435-.021.644.021 1.545.32 3.109.224 4.669.236 1.618.013 3.234.015 4.852.026.269.002.552-.022.806.047.948.257 1.917.259 2.886.286.214.007.428.05.636.097.997.22 2.013.33 3.019.492.961.155 1.897.364 2.798.734.796.325 1.61.607 2.305 1.138.269.205.442.461.602.741.167.291.207.603.185.93a1.3 1.3 0 0 1-.374.866c-.152.151-.304.307-.479.431-.17.122-.358.246-.557.299-.885.239-1.779.387-2.708.382-2.319-.008-4.637.021-6.954.042-.537.005-1.077-.044-1.608.108a.9.9 0 0 1-.473.019c-.529-.155-1.067-.118-1.605-.118l-12.938-.004c-.432 0-.871-.036-1.291.032-.538.087-1.055.098-1.589-.018a1.7 1.7 0 0 0-.801.021c-.793.237-1.602.188-2.408.19-.48 0-.961-.098-1.441-.098-.482.001-.965.1-1.447.106-1.509.016-3.019.011-4.528.011q-2.344 0-4.691-.008c-.805-.001-1.619.074-2.398-.224-.809-.033-1.58.358-2.401.211-5.014.008-10.028.021-15.042.021-.967 0-1.941.074-2.902-.117-.102-.021-.212-.007-.317.005-1.88.222-3.767.07-5.65.106-.545.009-1.062-.188-1.597-.206-.481-.016-.939.193-1.435.193-2.481-.006-4.959.021-7.44.024q-5.335.007-10.675-.005c-.752-.001-1.509.074-2.255-.108-.149-.037-.317 0-.476.01-.482.032-.977.151-1.445.085-.969-.136-1.927.007-2.889.005-1.834-.001-3.667.007-5.5.005l-9.381-.008q-7.357-.004-14.718.002c-2.911.001-5.823.019-8.734.016-2.695-.002-5.391-.016-8.086-.034-.484-.003-.966-.053-1.45-.082-.107-.007-.215-.039-.319-.024-1.771.23-3.553.064-5.328.125-.966.034-1.932.01-2.894-.103-.908.198-1.827.079-2.741.092q-.97.016-1.94-.002c-.429-.008-.857-.048-1.288-.074-.158-.009-.322-.042-.477-.022-1.773.204-3.553.053-5.33.104-.43.013-.831-.193-1.276-.099a5.3 5.3 0 0 1-1.125.088c-.804-.013-1.608.055-2.414-.132-.796-.183-1.584.272-2.399.137-.264-.044-.54-.006-.804-.053-.27-.048-.526-.021-.796-.003-.965.064-1.919.093-2.89-.107-.89-.183-1.822-.125-2.729.045-.209.039-.436.095-.635.054-1.283-.263-2.567-.182-3.855-.076a6 6 0 0 1-1.118-.037c-.274-.031-.537-.032-.798.05-.317.101-.629.124-.949.011a1.52 1.52 0 0 0-.955-.022c-.586.17-1.167.16-1.752-.004a2 2 0 0 0-1.118 0c-.373.115-.732.145-1.107.015-.468-.163-.959-.113-1.443-.113-2.966-.001-5.93.01-8.896.005q-9.866-.011-19.732-.034c-2.858-.006-5.715-.018-8.572-.048-1.193-.013-2.333-.345-3.469-.674-.793-.548-1.728-.884-2.385-1.628-.681-.769-1.239-1.616-1.611-2.575a2 2 0 0 1-.12-.626c-.021-.481-.002-.966-.024-1.447-.018-.394.26-.716.27-1.081.019-.701.409-1.217.794-1.724a4.95 4.95 0 0 1 1.558-1.373c1.128-.623 2.209-1.328 3.303-2.009 1.278-.796 2.545-1.609 3.821-2.409.547-.341 1.084-.707 1.66-.99 1.644-.811 3.076-1.98 4.739-2.759.532-.249 1.034-.576 1.526-.901 1.032-.684 2.184-1.165 3.195-1.885.088-.061.191-.098.287-.148a126 126 0 0 0 5.067-2.827 20 20 0 0 1 1.576-.82c1.409-.672 2.767-1.442 4.103-2.243.647-.39 1.32-.723 1.981-1.082a320 320 0 0 1 5.981-3.185c1.479-.763 2.911-1.624 4.336-2.485a32 32 0 0 1 2.259-1.249c1.299-.649 2.595-1.304 3.831-2.07 1.557-.965 3.212-1.749 4.835-2.591 1.287-.668 2.566-1.354 3.805-2.112a11 11 0 0 1 1.722-.882c1.009-.396 1.901-.994 2.834-1.524.28-.159.549-.341.832-.492 1.517-.812 3.043-1.608 4.556-2.427a310 310 0 0 0 3.949-2.188c1.033-.579 2.045-1.189 3.082-1.757 1.651-.905 3.329-1.764 4.971-2.682 2.297-1.286 4.684-2.415 6.892-3.859.269-.176.567-.311.851-.462 1.52-.806 3.087-1.537 4.547-2.44 1.513-.937 3.171-1.6 4.655-2.58 1.294-.541 2.389-1.432 3.648-2.044a47 47 0 0 0 3.54-1.93c1.065-.636 2.194-1.149 3.257-1.775 1.482-.874 3.05-1.597 4.488-2.545a16 16 0 0 1 1.68-.959c1.203-.6 2.32-1.358 3.541-1.925.196-.09.379-.208.575-.294 1.284-.565 2.466-1.319 3.664-2.036a39 39 0 0 1 1.973-1.1c1.668-.872 3.3-1.809 4.946-2.72q.495-.272.995-.536c.951-.5 1.935-.943 2.82-1.566 1.416-.653 2.682-1.59 4.16-2.129.348-.127.66-.357.975-.562a28 28 0 0 1 2.663-1.513c.866-.433 1.688-.952 2.56-1.373 1.796-.864 3.483-1.916 5.237-2.855 1.657-.887 3.345-1.719 4.974-2.654 1.493-.856 3.035-1.62 4.551-2.433.71-.38 1.398-.802 2.113-1.172.67-.346 1.304-.755 1.969-1.099 1.144-.593 2.252-1.251 3.425-1.79.877-.404 1.701-.924 2.555-1.376 2.186-1.157 4.378-2.305 6.564-3.462.38-.201.733-.452 1.117-.647.333-.171.72-.248 1.032-.444 1.234-.774 2.569-1.351 3.857-2.019q.717-.369 1.437-.735c.288-.147.59-.271.86-.444 1.589-1.022 3.332-1.753 5-2.622.142-.074.298-.132.432-.219 1.4-.917 2.945-1.561 4.427-2.324 1.482-.765 2.983-1.494 4.472-2.245.48-.242.961-.486 1.423-.758 1.253-.738 2.516-1.451 3.901-1.921 1.118-.645 2.265-1.237 3.411-1.831.233-.121.451-.303.626-.499.474-.533 1.116-.837 1.671-1.259.313-.238.703-.262 1.067-.344.084-.019.212.043.288.106.335.279.608.61.747 1.029a.43.43 0 0 1-.014.301c-.12.235-.308.442-.392.687-.091.262-.178.496-.429.647-.137.082-.257.195-.391.283-.795.53-1.272 1.283-1.596 2.163-.111.306-.215.604-.228.929-.014.375-.047.752-.034 1.125.021.584-.084 1.204.193 1.74.296.576.807 1.001 1.286 1.431.448.402.992.639 1.615.642.268.001.542.032.807 0 .549-.065 1.044-.24 1.372-.737.148-.222.363-.4.515-.618.213-.308.462-.614.579-.96.358-1.062.696-2.139.733-3.272.027-.856.076-1.717.015-2.57a23 23 0 0 0-.399-2.854c-.156-.783-.339-1.567-.621-2.324-.111-.299-.181-.615-.278-.919s-.198-.61-.312-.909c-.076-.2-.217-.378-.271-.583-.297-1.149-.815-2.205-1.352-3.254-.757-1.479-1.453-2.987-2.309-4.418-.354-.592-.678-1.201-1.061-1.779-.23-.347-.334-.766-.599-1.121-.35-.47-.631-.987-1.024-1.433-.209-.238-.343-.542-.511-.816-.112-.182-.201-.385-.342-.541-.467-.521-.869-1.092-1.31-1.632-.478-.582-.973-1.134-1.295-1.83-.129-.28-.396-.502-.615-.737-.513-.547-1.11-1.022-1.436-1.724-.044-.093-.13-.172-.206-.246-1.079-1.049-1.98-2.251-2.949-3.397-.599-.372-.94-1.016-1.531-1.405-.354-.234-.633-.58-.943-.876-.194-.185-.366-.401-.583-.555-1.012-.72-1.86-1.618-2.747-2.477-.306-.296-.597-.61-.998-.805-.235-.114-.442-.309-.623-.504-.443-.476-.981-.83-1.487-1.229-.717-.565-1.425-1.122-2.213-1.597-.685-.412-1.249-1.016-1.908-1.478-.921-.647-1.757-1.414-2.773-1.928-.238-.119-.451-.293-.655-.466a4.3 4.3 0 0 0-.804-.528c-1.476-.778-2.892-1.656-4.282-2.575a9 9 0 0 0-.834-.49c-1.052-.544-2.063-1.152-3.073-1.769-.594-.362-1.199-.713-1.885-.902-.307-.086-.6-.237-.882-.39-.941-.512-1.977-.832-2.891-1.402-1.04-.298-1.964-.869-2.977-1.236-.806-.291-1.55-.735-2.37-1.009-.301-.1-.568-.299-.851-.456-.141-.077-.279-.215-.423-.222-.839-.037-1.503-.568-2.284-.777-.723-.195-1.388-.612-2.115-.777-1.53-.35-2.946-1.01-4.41-1.525-1.372-.482-2.777-.82-4.173-1.197-.932-.251-1.843-.578-2.791-.773-.21-.043-.414-.156-.621-.161-.662-.016-1.272-.246-1.875-.453-1.175-.403-2.384-.631-3.595-.866-.633-.123-1.274-.238-1.882-.438-.528-.174-1.052-.211-1.592-.193-.1.003-.199.061-.3.093.052.068.098.188.158.196.464.058.627.561 1.075.678.35.092.654.356.973.551q.548.335 1.085.687c.673.442 1.345.887 2.008 1.342.266.182.547.362.756.6.503.577 1.234.857 1.763 1.397.102.105.284.153.437.186.283.057.481.189.61.457.092.188.259.341.376.519.121.187.163.393.071.609-.107.249-.141.508-.152.782-.01.262.192.531.03.769-.145.216-.364.385-.551.572a.65.65 0 0 1-.592.174 4 4 0 0 1-.622-.163 1.65 1.65 0 0 0-1.106.002c-1.224.418-2.49.647-3.767.829-.532.075-1.026.297-1.561.389-.683.118-1.335.396-2.01.57-.466.12-.919.281-1.411.335-.475.051-.948.202-1.401.365-.409.146-.812.267-1.251.283-.21.008-.44.044-.624.137-1.118.56-2.382.647-3.532 1.101-.657.034-1.249.317-1.874.473-.364.092-.731.184-1.103.235-.33.047-.625.143-.891.341-.081.06-.211.127-.292.105-.48-.139-.954.056-1.433.013-.12-.012-.206-.012-.274-.116a3 3 0 0 0-.284-.385c-.216-.233-.61-.307-.688-.647-.07-.307-.05-.639-.052-.959-.001-.213-.026-.449.054-.636.221-.515.171-1.03.148-1.567-.012-.324-.009-.622-.142-.929-.683-1.569-1.88-2.582-3.453-3.192-.147-.058-.31-.082-.469-.106-.213-.032-.442-.008-.641-.076-1.325-.46-2.656-.243-3.989-.064-.266.035-.528.134-.792.132-.773-.003-1.469.237-2.179.517-.848.334-1.71.639-2.568.948-.983.354-1.821.903-2.648 1.498-.261.188-.51.399-.788.555-.24.136-.44.295-.62.501a8 8 0 0 1-.783.811c-.508.433-.613.979-.544 1.598.039.351.201.609.52.755.632.29 2.415.769 3.101.842.641.066 1.3.005 1.91.28.753.053 1.512.095 2.249-.097a1.68 1.68 0 0 1 1.098.058c.248.098.528.119.774.221.351.146.663.331.763.763.044.188.235.344.364.51.172.225.185.322.016.57-.15.22-.33.42-.381.697-.049.255.034.589-.233.735-.465.258-.958.539-1.515.394-.377-.098-.709-.125-1.094-.003-1.33.422-2.668.826-4.006 1.217-1.186.348-2.349.747-3.517 1.144-.71.242-1.403.543-2.162.636-.207.026-.401.151-.605.214-.564.172-1.124.348-1.708.467-.999.203-1.976.502-2.961.764-.261.07-.539.115-.769.24-.862.475-1.83.621-2.755.889-.364.104-.726.175-1.042.4-.228.163-.5.187-.77.203-.544.031-1.049.198-1.558.385-1.007.372-1.998.795-3.073.957-.157.025-.307.095-.459.148-2.027.72-4.098 1.288-6.186 1.798-.157.039-.333.037-.469.111-.861.467-1.851.556-2.739.95-.532.237-1.121.37-1.697.481-.745.142-1.437.444-2.164.629-.729.187-1.447.403-2.169.612-1.288.372-2.561.798-3.87 1.098a3 3 0 0 0-.61.203c-.44.212-.882.389-1.384.405-.21.007-.433.06-.623.148-.587.277-1.208.425-1.836.586-1.818.47-3.621.996-5.43 1.503q-.386.11-.767.237c-1.936.645-3.912 1.152-5.881 1.688-.362.098-.723.203-1.086.306-1.289.37-2.541.877-3.887 1.035-.489.267-1.052.214-1.565.364-.463.135-.89.391-1.354.516-.566.153-1.104.448-1.717.414-.831.217-1.676.391-2.49.66-1.297.428-4.632.977-5.828 1.218-1.317.266-2.666.327-3.973.646-.364.088-.72.223-1.088.284-.336.057-.631-.074-.844-.357-.118-.158-.107-.483.039-.581.132-.09.26-.209.407-.256.882-.272 1.686-.706 2.503-1.118.432-.218.881-.403 1.322-.597.444-.195.896-.367 1.332-.578 1.454-.705 2.959-1.278 4.498-1.769 1.229-.393 2.446-.821 3.677-1.207 2.715-.852 5.44-1.672 8.192-2.406.207-.055.416-.113.628-.136.378-.04.733-.141 1.087-.283a16 16 0 0 1 2.304-.724c.886-.211 1.743-.544 2.637-.739.314-.067.628-.14.942-.207.21-.046.43-.062.629-.136 2.066-.772 4.225-1.247 6.318-1.931 1.02-.333 2.076-.549 3.116-.819.259-.068.52-.134.774-.218 1.734-.577 3.53-.951 5.245-1.59 2.146-.503 4.233-1.216 6.372-1.74.833-.204 1.65-.481 2.467-.75.612-.201 1.209-.452 1.851-.548.053-.008.112-.01.159-.033 1.124-.544 2.35-.748 3.541-1.075.723-.199 1.431-.452 2.188-.537.42-.049.838-.201 1.236-.361 1.252-.499 2.566-.79 3.857-1.159.413-.117.833-.207 1.241-.339 2.505-.811 5.088-1.349 7.588-2.181.202-.068.424-.071.636-.11.134-.025.194-.099.167-.202-.013-.05-.028-.116-.065-.14-.489-.327-.99-.634-1.471-.972-.663-.467-1.275-.987-1.648-1.734a3.2 3.2 0 0 1-.326-1.22c-.037-.426-.155-.825.039-1.249.086-.188.057-.426.128-.626.142-.402.315-.793.479-1.188a.4.4 0 0 1 .094-.13c.621-.605.996-1.397 1.564-2.041q.318-.36.646-.713a1.2 1.2 0 0 1 .239-.214c.963-.586 1.812-1.342 2.851-1.819.829-.379 1.616-.84 2.446-1.226 1.23-.571 2.51-.958 3.82-1.254.835-.19 1.67-.412 2.544-.401.317.004.639-.077.953-.143.696-.143 1.391-.18 2.076.028.42.127.849.132 1.278.169.32.027.642.067.958.13 2.425.486 4.342 1.804 5.949 3.621.141.16.251.349.349.538.224.428.416.872.648 1.295.184.338.289.686.292 1.071.004.267.038.534.073.8.046.349.374.584.691.495 1.243-.342 2.472-.735 3.728-1.027 1.938-.449 3.817-1.107 5.743-1.591.78-.197 1.552-.428 2.353-.549a6.6 6.6 0 0 0 1.995-.613c.129-.065.154-.161.063-.253-.113-.113-.223-.235-.358-.317-.912-.568-1.808-1.169-2.752-1.682-2.029-1.106-4.033-2.26-6.124-3.254-1.603-.763-3.185-1.573-4.785-2.342-.678-.325-1.337-.694-2.062-.918a2.3 2.3 0 0 1-.72-.357c-.7-.534-1.527-.782-2.333-1.081-.302-.113-.616-.2-.906-.337-1.555-.74-3.182-1.303-4.768-1.971a39 39 0 0 0-3.634-1.327c-.513-.157-.993-.415-1.508-.569-1.854-.554-3.695-1.15-5.574-1.618-.364-.09-.723-.204-1.088-.288-.521-.121-1.047-.311-1.571-.314-.551-.003-.941.483-1.405.742-1.359.763-2.687 1.581-4.032 2.368-.461.27-.933.52-1.408.769-1.095.576-2.096 1.312-3.216 1.846-.193.092-.374.211-.555.327-1.226.774-2.438 1.574-3.682 2.321a284 284 0 0 0-4.542 2.77c-1.641 1.025-3.31 2.003-4.965 3.004-.782.474-1.538.992-2.34 1.423-.756.406-1.45.911-2.255 1.243-.538.22-1.005.616-1.489.954-1.233.864-2.553 1.59-3.822 2.395-.545.345-1.124.637-1.655 1.001-1.066.733-2.254 1.256-3.338 1.956-.451.291-.91.566-1.362.859-1.802 1.17-3.605 2.344-5.443 3.457-.873.53-1.718 1.098-2.577 1.648-1.403.9-2.838 1.748-4.26 2.619-.092.056-.193.098-.282.158-1.444.932-2.886 1.868-4.332 2.797-.497.319-1.01.616-1.51.932-.272.171-.535.354-.799.537-.088.062-.157.15-.248.207-.778.478-1.585.915-2.334 1.434-.706.487-1.36 1.051-2.122 1.461-.236.127-.485.243-.695.407-1.829 1.421-3.88 2.509-5.776 3.831-1.542 1.075-3.152 2.057-4.684 3.145-1.008.716-2.105 1.3-3.053 2.098-1.473.792-2.757 1.864-4.146 2.783-1.477.977-2.868 2.083-4.295 3.134q-.714.524-1.427 1.051c-1.123.829-2.275 1.624-3.362 2.498-1.047.841-2.12 1.646-3.171 2.48-.293.232-.559.5-.819.769a.36.36 0 0 0-.076.295c.173.619.393 1.229.742 1.77.614.951 1.088 1.973 1.604 2.973.54 1.048 1.04 2.116 1.687 3.109.204.313.348.665.52 1q1.46 2.87 2.926 5.736c.172.333.343.67.552.982.272.405.46.845.647 1.291.209.492.397 1.004.677 1.455.712 1.141 1.288 2.351 1.91 3.539.075.142.149.291.261.401.11.106.264.227.405.235.645.033 1.291.033 1.925-.131.207-.053.419-.12.631-.125 1.134-.028 2.249-.201 3.364-.383.212-.034.441-.018.637-.092.571-.211 1.165-.195 1.756-.227.537-.029 1.082.006 1.587-.24 1.016-.087 1.993-.449 3.032-.412.315.011.636-.09.954-.14s.635-.117.955-.145c.642-.054 1.296-.021 1.912-.267 1.133-.026 2.215-.451 3.358-.425.265.007.543-.03.792-.114.418-.142.847-.14 1.27-.206.85-.13 1.686-.349 2.555-.319 1.126-.418 2.361-.183 3.495-.568.149-.05.32-.035.48-.045.538-.034 1.072-.056 1.596-.22.301-.094.64-.063.959-.105.372-.048.745-.11 1.113-.172.159-.028.313-.105.471-.108.973-.015 1.922-.195 2.878-.34.635-.096 1.277-.128 1.913-.26.574-.12 1.179-.095 1.772-.126.537-.027 1.082.013 1.593-.206 1.083-.006 2.11-.42 3.194-.427.264-.001.528-.091.791-.144.211-.042.423-.131.631-.126.979.021 1.916-.269 2.875-.386.851-.105 1.688-.324 2.553-.338.665-.259 1.373-.243 2.067-.32.639-.071 1.258-.264 1.909-.31.479-.033.945-.202 1.424-.255.482-.055.953-.16 1.427-.242.792-.138 1.588-.277 2.383-.384a22 22 0 0 0 1.899-.361c1.204-.272 2.408-.528 3.631-.711.95-.142 1.878-.437 2.815-.668.118-.029.131-.132.07-.258-.259-.529-.52-1.059-.772-1.592-.299-.632-.471-1.741-.396-2.488.011-.106.05-.214.04-.319-.142-1.331.366-2.526.783-3.738.388-1.129.995-2.157 1.733-3.071a15.5 15.5 0 0 1 2.399-2.379 11.1 11.1 0 0 1 2.942-1.658c.351-.133.705-.264 1.05-.413.547-.235 1.09-.445 1.707-.432.262.005.524-.104.788-.149.898-.153 1.797-.305 2.699-.446a1.4 1.4 0 0 1 .483.003c1.152.249 2.349.286 3.464.716.101.039.196.097.3.121 2.051.488 4.541 2.886 5.027 5.599.113.63.339 1.238.31 1.898-.026.587.034 1.178-.2 1.744-.06.145-.093.314-.091.47.016 1.368-.44 2.63-.853 3.905-.098.306-.187.615-.278.924-.066.225.086.385.349.376.486-.016.963-.049 1.439-.175.883-.232 1.76-.502 2.687-.515.668-.225 1.377-.232 2.057-.375.636-.134 1.291-.142 1.906-.309.741-.201 1.501-.161 2.231-.322a12.4 12.4 0 0 1 2.074-.288c.592-.029 1.144-.278 1.746-.309.532-.027 1.053-.209 1.585-.275.481-.061.97-.039 1.427-.237a.7.7 0 0 1 .316-.059c1.194.054 2.348-.253 3.521-.393.532-.063 1.054-.203 1.585-.266.534-.062 1.078-.046 1.594-.235a1 1 0 0 1 .314-.067c1.027-.005 2.029-.197 3.037-.37.422-.073.849-.111 1.271-.206.416-.094.855-.089 1.285-.115.537-.032 1.076-.029 1.592-.228.196-.076.422-.097.634-.1.816-.016 1.583-.312 2.385-.402.154-.018.363-.306.359-.485q-.024-2.011-.055-4.02c-.003-.161 0-.33-.048-.48-.254-.781-.225-1.585-.249-2.387-.01-.32.011-.66-.088-.957-.225-.681-.196-1.377-.217-2.07-.017-.589-.029-1.18-.045-1.769-.006-.214.023-.439-.031-.641-.328-1.208-.224-2.448-.279-3.676-.025-.536-.031-1.067-.179-1.593-.084-.304-.082-.636-.093-.954-.017-.483-.007-.966-.013-1.449-.013-.858-.068-1.717-.036-2.574.031-.806-.223-1.585-.149-2.39-.252-1.165-.139-2.346-.176-3.521-.024-.8.057-1.611-.209-2.392.073-.908-.129-1.804-.103-2.712.029-1.017.004-2.037-.002-3.056-.002-.375.05-.77-.044-1.122-.242-.914.025-1.801.065-2.699.01-.229.17-.385.392-.459a7 7 0 0 1 .464-.141c.437-.112 1.035.136 1.259.513.503.848.702 1.788.812 2.749.042.372.015.75.034 1.125.015.266.008.547.097.792.168.468.165.945.191 1.426.037.69.091 1.381.146 2.071.008.103.061.205.092.306.066.216.181.404.412.449.845.163 1.685.327 2.557.322.857-.005 1.726-.031 2.561.264.196.069.427.047.642.053.486.016.969.023 1.434.201.149.057.314.092.472.094.974.011 1.922.218 2.883.328.542.061 1.046.253 1.578.317.534.064 1.064.097 1.594.237.776.204 1.595.196 2.375.437 1.283.396 2.619.572 3.923.895 1.097.271 2.178.594 3.254.921 1.592.483 3.205.927 4.715 1.653.239.116.508.177.765.252.569.168 1.11.4 1.645.66.822.399 1.678.729 2.494 1.14.959.483 1.891 1.019 2.831 1.539.375.207.733.45 1.113.648a41 41 0 0 1 4.938 3.044c1.008.724 2.003 1.447 2.88 2.325.227.227.472.446.739.623 1.191.792 2.034 1.898 2.827 3.053q.18.266.346.543c.594.962.613.996-.341 1.852-.168.152-.452.182-.594.052-.589-.543-1.351-.89-1.801-1.589-.983-.666-1.705-1.637-2.706-2.284-.269-.173-.488-.421-.738-.624-.209-.169-.411-.354-.647-.476-.675-.35-1.293-.768-1.832-1.304a1.3 1.3 0 0 0-.39-.28c-.547-.242-1.005-.628-1.524-.905a34 34 0 0 1-2.906-1.727 2.3 2.3 0 0 0-.421-.236c-1.406-.541-2.755-1.199-4.103-1.866-.479-.236-1.056-.294-1.501-.571-.79-.493-1.702-.641-2.531-1.02-.776-.356-1.621-.567-2.441-.825-1.18-.368-2.357-.738-3.566-1.002a9 9 0 0 1-1.238-.362c-1.26-.474-2.587-.704-3.881-1.053a2.7 2.7 0 0 0-.476-.085 9.5 9.5 0 0 1-1.741-.306c-.563-.153-1.187-.037-1.736-.317-.64-.021-1.259-.28-1.911-.18-.053.008-.114.029-.158.011-.607-.251-1.28-.168-1.89-.377-.367-.125-.735-.149-1.113-.149-.594 0-1.183-.012-1.751-.234-.191-.074-.425-.055-.639-.051-.265.003-.542.091-.794.043-.85-.159-1.728-.026-2.566-.254-.233-.063-.419.024-.612.121-.157.078-.273.249-.23.381.204.623.196 1.267.204 1.909.013.858.033 1.716.036 2.573.001.485.011.96.158 1.431.078.25.068.528.081.795.037.75.065 1.5.097 2.25.374 1.312.206 2.661.267 3.993.02.43.021.855.193 1.264.149.357-.107.723.029 1.106.103.291.063.634.079.956.031.589-.042 1.204.102 1.762.274 1.061.176 2.131.244 3.195.044.692-.013 1.389.196 2.074.071.234-.123.543-.061.784.348 1.37.126 2.773.293 4.154.077.651-.138 1.262-.706 1.694a6.2 6.2 0 0 1-1.705.899c-1.472.517-3.005.826-4.511 1.227-.154.041-.32.05-.48.054-1.029.023-2.008.348-3.018.482-.401.202-.844.152-1.27.188-.537.045-1.074.035-1.59.233-.196.074-.424.082-.638.087-.54.015-1.069.04-1.594.214-.297.098-.639.066-.959.105q-.558.072-1.115.164c-.158.026-.312.087-.471.108-.639.082-1.288.055-1.917.253-.561.175-1.181.103-1.731.362-1.189.009-2.322.465-3.519.428-.371-.011-.746.085-1.115.151-.527.097-1.06.184-1.576.325-.477.132-.961.113-1.44.166-.265.029-.527.09-.791.145-.21.043-.417.146-.625.143-.71-.006-1.378.225-2.067.32-.693.097-1.356.345-2.068.353-.699.008-1.361.282-2.066.333a8.2 8.2 0 0 0-2.052.399c-.574.197-1.169.164-1.736.338-.511.158-1.029.298-1.545.441q-.32.091-.634-.019c-.376-.134-.88.006-1.052-.559-.055-.183-.272-.325-.432-.466-.335-.293-.359-.631-.194-1.016.063-.146.117-.303.143-.459.046-.28.166-.499.417-.65.333-.199.552-.504.731-.84.657-1.233 1.246-2.496 1.605-3.848.206-.773.401-1.555.52-2.344.077-.523-.01-1.07.014-1.604.036-.778-.186-1.478-.573-2.139a8 8 0 0 1-.304-.569 1.6 1.6 0 0 0-.506-.598c-.921-.686-1.895-1.223-3.073-1.299-.783-.27-1.597-.266-2.399-.179-.744.081-1.493.209-2.213.412-.881.248-1.717.628-2.51 1.093-1.175.691-1.739 1.103-2.703 2.012-.039.037-.086.068-.115.111q-.63.93-1.295 1.835c-.312.423-.522.943-.681 1.45-.173.557-.233 1.148-.341 1.722.223.758.115 1.616.691 2.268.161.531.582.896.877 1.341.171.259.527.365.618.714.148.567.42 1.107.325 1.721-.024.157 0 .322-.016.481-.023.219-.114.406-.313.529-.694.43-1.486.609-2.239.892-1.077.1-2.11.396-3.142.697-.867.011-1.663.462-2.54.41-1.134.338-2.328.4-3.459.749-.204.063-.416.132-.626.141-1.029.046-2.01.34-3.01.538-.578.114-1.158.248-1.744.283-1.181.074-2.309.478-3.493.504-.714.295-1.468.293-2.222.309-.213.005-.44.021-.635.095-.465.175-.947.193-1.431.235-.213.018-.435.04-.634.113-.416.148-.843.161-1.273.183-.696.039-1.397.024-2.073.266-.243.087-.532.045-.801.063-.429.027-.864.014-1.27.199a.4.4 0 0 1-.154.047c-1.25-.024-2.431.388-3.65.57-.533.078-1.067.111-1.601.157-.481.044-.96.045-1.434.208-.346.119-.765.034-1.111.154-.473.165-.948-.016-1.429.147-.445.15-.969.055-1.435.166-.84.202-1.707.212-2.54.415-.424.103-.846.14-1.277.177-.534.047-1.074.037-1.595.22-.246.087-.533.06-.8.086-.322.03-.661.008-.961.103-.572.183-1.176.162-1.742.294-.796.187-1.589.25-2.395.272-.161.005-.335-.006-.48.049-.829.312-1.701.222-2.553.299-.267.024-.549.024-.796.113-.416.149-.845.151-1.269.215-.903.137-1.791.369-2.713.362-.66.28-1.369.242-2.061.317-.479.052-.945.21-1.424.258-.429.043-.854.043-1.267.211-.191.077-.422.072-.636.077-.757.018-1.492.163-2.234.29-.523.088-.914.285-1.222.682-.949 1.231-2.116 2.278-3.012 3.554-.152.217-.374.385-.559.579-.589.625-1.221 1.211-1.674 1.953-.083.135-.217.238-.312.368-.444.604-1.086 1.027-1.461 1.705-.337.603-.798 1.139-1.206 1.702-.157.218-.285.466-.479.641-.519.468-.974.967-1.326 1.585-.314.551-.847.971-1.081 1.587a.8.8 0 0 1-.154.282c-.675.705-1.086 1.598-1.702 2.338-.451.543-.809 1.132-1.146 1.744-.258.47-.509.94-.878 1.342a3.5 3.5 0 0 0-.536.798c-.286.572-.857.964-1.006 1.618q-.562.784-1.121 1.571c-.094.13-.228.255-.259.402-.105.496-.44.851-.697 1.257a59 59 0 0 0-2.552 4.461c-.369.713-.673 1.462-1.187 2.094a1.6 1.6 0 0 0-.23.424c-.604 1.551-1.592 2.913-2.219 4.453-.2.494-.453.969-.648 1.465-.178.449-.573.775-.664 1.276-.035.198-.192.377-.301.56-.08.138-.197.262-.252.41-.39 1.055-.922 2.048-1.356 3.083-.475 1.134-.938 2.275-1.424 3.407-.21.491-.487.954-.555 1.5a.9.9 0 0 1-.186.438c-.391.471-.491 1.065-.707 1.609-.195.498-.315 1.024-.513 1.52-.237.597-.602 1.155-.762 1.768-.163.628-.446 1.204-.631 1.814-.187.62-.498 1.185-.697 1.795-.149.454-.327.895-.421 1.376a9 9 0 0 1-.686 2.136c-.514 1.072-.817 2.208-1.168 3.328-.255.813-.642 1.589-.747 2.446-.013.103-.071.203-.118.298-.546 1.116-.785 2.324-1.096 3.514-.268 1.033-.475 2.089-1.009 3.035-.162.285-.228.589-.275.914-.06.422-.173.837-.295 1.246-.152.512-.367 1.003-.396 1.55-.012.208-.068.43-.162.616-.51 1.018-.718 2.128-1.026 3.207-.162.566-.289 1.137-.527 1.68-.107.241-.128.52-.217.771a8 8 0 0 1-.38.88c-.04.076-.172.139-.262.14-.086.002-.222-.067-.25-.14-.487-1.236-.446-2.515-.257-3.795.055-.369.157-.731.17-1.107.021-.642.011-1.291.277-1.898.024-.806.284-1.579.36-2.374.052-.544.298-1.03.34-1.564.038-.481.04-.968.254-1.417.204-1.541.612-3.04 1.039-4.53.587-2.056 1.01-4.159 1.755-6.171.185-.501.321-1.022.439-1.542.288-1.255.667-2.48 1.188-3.66.064-.146.126-.298.168-.451.319-1.191.791-2.328 1.192-3.49a60 60 0 0 1 1.684-4.343c.576-1.326 1.106-2.672 1.659-4.007.184-.446.37-.89.569-1.33.79-1.759 1.547-3.536 2.393-5.268.517-1.056.916-2.172 1.571-3.161.06-.09.135-.174.17-.273.701-1.986 2-3.668 2.859-5.574 1.186-1.915 2.126-3.971 3.406-5.831.61-1.196 1.497-2.226 2.092-3.431 1.003-1.196 1.597-2.672 2.647-3.837.071-.079.113-.182.172-.272 1.05-1.623 2.237-3.145 3.394-4.692.866-1.159 1.776-2.286 2.627-3.456.318-.437.656-.848 1.03-1.234.299-.309.592-.62.812-.996.106-.184.252-.351.406-.499.93-.9 1.637-1.988 2.504-2.942.07-.078.11-.182.167-.274.068-.109.052-.38-.05-.447-.984-.643-1.529-1.626-2.074-2.613-.13-.233-.275-.458-.406-.692-.288-.515-.643-1.006-.843-1.551-.555-1.516-1.385-2.888-2.181-4.277-.24-.417-.502-.812-.67-1.27-.185-.5-.453-.964-.626-1.477-.151-.446-.558-.79-.625-1.291-.383-.645-.754-1.297-1.15-1.934-.541-.868-1.021-1.763-1.366-2.727a4.3 4.3 0 0 0-.327-.734c-.563-.975-1.139-1.942-1.71-2.913a3 3 0 0 0-.085-.137c-.373-.589-.517-1.283-.926-1.865-.367-.523-.612-1.132-.903-1.705-.314-.621-.618-1.247-.927-1.871-.024-.049-.04-.1-.065-.148a.42.42 0 0 1 .039-.454q.49-.638 1.013-1.249a3.2 3.2 0 0 1 .472-.436c.423-.33.832-.686 1.288-.965 1.243-.764 2.309-1.752 3.456-2.637.211-.163.447-.293.67-.441.178-.12.385-.215.528-.367.703-.758 1.647-1.201 2.428-1.855a21 21 0 0 1 2.341-1.71c.497-.308.859-.813 1.421-1.045.99-.83 2.123-1.461 3.168-2.215s2.118-1.467 3.168-2.213c.396-.281.801-.539 1.228-.769.755-.409 1.482-.864 2.111-1.461.23-.219.503-.408.783-.56 1.183-.647 2.251-1.46 3.349-2.233a25 25 0 0 1 2.474-1.511 10.6 10.6 0 0 0 1.484-.964c1.147-.895 2.38-1.648 3.626-2.389.875-.521 1.736-1.073 2.535-1.709a14 14 0 0 1 2.01-1.336c.561-.307 1.03-.801 1.608-1.057.55-.243 1.024-.584 1.535-.876.232-.132.421-.333.639-.489.612-.436 1.214-.887 1.903-1.201.79-.359 1.464-.899 2.184-1.368a23 23 0 0 0 1.575-1.115c.501-.39 1.155-.567 1.64-1.013.115-.106.275-.165.421-.234a9.7 9.7 0 0 0 2.15-1.407c.121-.105.248-.227.393-.277 1.141-.393 2.019-1.207 3.014-1.833q.341-.214.701-.395c.956-.489 1.898-.988 2.76-1.648.851-.65 1.788-1.189 2.686-1.776.045-.029.083-.079.131-.094.735-.219 1.335-.676 1.963-1.088a54 54 0 0 1 1.91-1.199c.83-.494 1.673-.966 2.508-1.448.118-.07.149-.158.086-.223a.22.22 0 0 0-.142-.061c-.16.004-.327.002-.481.041-.26.064-.519.144-.768.243-1.102.437-2.238.75-3.385 1.044-.88.227-1.715.629-2.569.951-.251.094-.5.234-.758.256-.606.055-1.137.295-1.679.536-.736.329-1.484.628-2.285.773-.157.029-.322.059-.462.132-.864.439-1.783.745-2.668 1.133-.691.302-1.384.587-2.136.697-.105.016-.23.022-.309.082-.654.494-1.487.602-2.183 1.011a9 9 0 0 1-2.215.956c-.407.111-.836.22-1.168.523-1.697.679-3.278 1.611-4.981 2.279-.751.294-1.478.653-2.193 1.026-1.238.647-2.529 1.193-3.707 1.953a1.5 1.5 0 0 1-.448.172c-.428.103-.801.322-1.147.576-.438.322-.901.592-1.424.737-.322.09-.563.316-.854.443-.54.238-.937.69-1.526.882-.551.179-1.037.555-1.551.847-.421.238-.838.481-1.262.714-.186.103-.379.2-.576.279-.855.336-1.638.764-2.356 1.361-.697.58-1.48 1.09-2.294 1.491-1.019.5-1.925 1.181-2.94 1.678-.097.047-.199.087-.286.148-1.18.844-2.448 1.549-3.655 2.35-1.029.684-2.058 1.365-3.121 1.993-.277.162-.56.331-.79.552-.937.895-2.147 1.427-3.074 2.33-.438.11-.693.499-1.076.699a3 3 0 0 0-.65.471c-.754.691-1.63 1.22-2.432 1.843-.594.461-1.244.84-1.786 1.375-.339.333-.791.547-1.164.849-.373.305-.673.715-1.074.973-1.228.788-2.327 1.728-3.391 2.715-.479.169-.762.581-1.123.896-.565.493-1.107 1.008-1.726 1.446-.609.431-1.112.997-1.738 1.429-.57.393-1.047.922-1.545 1.411-.46.451-.89.923-1.461 1.254-.317.185-.562.496-.832.757-.581.556-1.1 1.181-1.775 1.636-.089.06-.184.121-.246.205a5 5 0 0 1-1 1.043c-.38.289-.724.627-1.084.946q-.06.053-.118.11c-.365.391-.713.801-1.098 1.171-.348.333-.746.613-1.104.937a3 3 0 0 0-.522.608c-.149.235-.359.388-.554.573-.778.737-1.598 1.433-2.211 2.331-.177.259-.43.502-.706.648-.547.289-.904.752-1.284 1.203-.277.328-.52.684-.811.998-.586.627-1.205 1.218-1.694 1.936-.3.438-.841.669-1.113 1.149-.532.375-.885.924-1.332 1.384s-.854.959-1.24 1.478c-.32.428-.73.787-1.101 1.175-.592.621-1.252 1.179-1.712 1.92a2.2 2.2 0 0 1-.437.471 15 15 0 0 0-1.58 1.598c-.07.083-.128.187-.217.237-.727.406-1.134 1.125-1.702 1.687a54 54 0 0 0-2.02 2.082c-.663.733-1.468 1.248-2.352 1.663-.048.023-.107.063-.149.052-.152-.039-.31-.076-.443-.152a.35.35 0 0 1-.175-.409c.15-.571.335-1.125.622-1.649a28 28 0 0 1 2.17-3.382c.129-.172.302-.317.402-.504.741-1.384 1.8-2.528 2.807-3.713.515-.896 1.333-1.541 1.958-2.345.63-.808 1.328-1.546 2.022-2.295.51-.55.97-1.146 1.465-1.711.602-.685 1.308-1.278 1.813-2.048a1.1 1.1 0 0 1 .22-.234c.542-.442.966-1.003 1.461-1.487 2.075-2.031 4.02-4.189 6.149-6.169 1.574-1.465 3.062-3.02 4.596-4.528.497-.489.994-.978 1.576-1.377.309-.211.576-.485.846-.747.848-.823 1.659-1.685 2.65-2.348.22-.147.392-.367.588-.552 1.289-1.219 2.656-2.342 4.032-3.462 1.082-.882 2.153-1.779 3.284-2.6q.066-.048.125-.103c1.33-1.262 2.889-2.227 4.323-3.357 1.645-1.299 3.386-2.466 5.064-3.718.387-.288.807-.529 1.21-.797.312-.207.62-.426.93-.635.267-.179.533-.362.808-.528.875-.53 1.749-1.058 2.508-1.755.195-.18.417-.342.65-.47.806-.439 1.55-.967 2.309-1.479.489-.33 1.011-.611 1.518-.915.229-.139.487-.25.684-.425.61-.544 1.327-.911 2.035-1.294.143-.078.295-.14.424-.234 1.185-.85 2.484-1.501 3.768-2.177.143-.076.292-.142.426-.232 1.523-1.014 3.186-1.787 4.737-2.752.5-.313 1.046-.556 1.573-.823 1.103-.558 2.23-1.075 3.276-1.741a6.5 6.5 0 0 1 1.154-.578c1.21-.462 2.338-1.096 3.503-1.65 1.457-.693 2.904-1.408 4.359-2.11.241-.117.49-.22.739-.322 1.246-.505 2.501-.986 3.703-1.595.429-.217.9-.351 1.348-.532 1.892-.771 3.767-1.586 5.674-2.312 1.906-.724 3.783-1.542 5.776-2.024a2 2 0 0 0 .308-.094c2.132-.906 4.373-1.497 6.567-2.224.917-.304 1.853-.55 2.783-.816.516-.146 1.039-.272 1.556-.415.208-.058.402-.179.61-.206 1.605-.218 3.097-.894 4.692-1.148.641-.304 1.371-.203 2.037-.468.589-.235 1.232-.356 1.877-.451.689-.101 1.359-.341 1.882-.853.076-.074.155-.159.251-.201.792-.349 1.454-.916 2.216-1.307a22 22 0 0 0 1.945-1.146l.136-.087c.835-.487 1.687-.949 2.503-1.469s1.629-1.045 2.498-1.478c.144-.072.301-.129.429-.223 1.165-.873 2.493-1.478 3.718-2.252.181-.114.369-.222.566-.308.637-.278 1.272-.545 1.803-1.028.404-.369.939-.513 1.493-.538 1.026-.045 2.037-.02 3.032.311.505.169 1.013.359 1.563.388.26.013.519.125.773.209.204.066.395.2.602.229.913.133 1.746.523 2.621.761.934.254 1.841.589 2.772.847a9.5 9.5 0 0 1 1.65.643c.481.237.961.482 1.51.552.205.028.396.158.595.239 1.687.695 3.364 1.419 5.088 2.024.895.49 1.863.82 2.77 1.285.573.293 1.185.51 1.78.758.099.04.206.09.309.088.977-.024 1.908.362 2.877.353 1.199-.011 2.339.315 3.506.491.531.08 1.074.111 1.592.241.526.132 1.05.208 1.586.272.851.103 1.702.243 2.538.43 1.414.315 2.817.671 4.251.901.686.11 1.349.354 2.025.528 1.039.267 2.112.391 3.144.692.257.076.519.137.777.209 1.342.385 2.666.842 4.036 1.129.157.032.303.117.46.151.793.169 1.491.599 2.289.774.785.172 1.55.443 2.315.691.767.247 1.525.524 2.288.787q1.145.39 2.291.777c.052.018.107.022.156.045 1.988.958 4.117 1.569 6.128 2.48 1.274.576 2.531 1.201 3.822 1.724 1.257.509 2.37 1.263 3.597 1.812 1.184.853 2.549 1.376 3.826 2.059 1.328.711 2.619 1.482 3.919 2.24.278.163.563.317.836.485.275.169.576.313.804.532.55.527 1.219.871 1.84 1.29 1.204.807 2.454 1.551 3.593 2.454.253.2.534.36.801.542 1.154.787 2.238 1.665 3.285 2.588.322.284.613.604 1.013.792.144.068.283.164.393.279.822.854 1.822 1.505 2.674 2.325.774.746 1.523 1.513 2.387 2.167.467.352.904.782 1.249 1.254.797 1.094 1.821 1.971 2.744 2.943.702.739 1.485 1.405 2.03 2.282.028.046.068.084.105.121 1.597 1.608 2.796 3.531 4.227 5.271.58.964 1.308 1.833 1.839 2.831.175.33.403.633.605.95.922 1.448 1.795 2.924 2.553 4.465.167.336.334.672.517 1.002.624 1.129 1.143 2.307 1.621 3.501.574 1.442 1.157 2.879 1.58 4.378.233.824.47 1.643.604 2.49.108.685.37 1.343.393 2.045.277.609.222 1.26.244 1.901.015.428-.017.858-.004 1.286.045 1.432-.436 3.547-.898 5.033-.08.256-.161.505-.301.74a15 15 0 0 0-.775 1.407c-.329.7-.847 1.238-1.411 1.74-.157.14-.351.244-.539.346-.283.151-.587.265-.862.428-.528.31-1.143.278-1.702.457-.932-.254-1.94-.116-2.837-.552a7.7 7.7 0 0 1-1.745-1.144 20 20 0 0 1-1.044-1.01c-.453-.463-.93-.917-.9-1.644a.3.3 0 0 0-.045-.153c-.571-.972-.615-2.035-.552-3.118.013-.211-.026-.425-.042-.637-.009-.131-.26-.269-.374-.203-.974.571-1.973 1.096-2.967 1.63-.613.33-1.197.692-1.856.953-.642.256-1.21.691-1.815 1.041-.605.351-1.2.722-1.825 1.034a59 59 0 0 0-4.496 2.523 8 8 0 0 1-.861.443 25 25 0 0 0-2.969 1.622c-.451.288-.898.572-1.404.776-.44.179-.822.485-1.304.612-.303.079-.568.297-.848.457-.374.212-.74.439-1.12.639-.571.301-1.204.515-1.712.896-.524.395-1.15.562-1.682.94-.607.432-1.329.702-1.995 1.051-.761.398-1.466.889-2.286 1.188-.453.166-.816.521-1.049.966-.175.331-.333.671-.49 1.012a.8.8 0 0 0-.087.46c.056.369.092.744.113 1.116.056.985.357 1.873.942 2.683.229.317.488.565.818.753.61.348 1.264.597 1.934.805.359.111.721.28 1.085.293.363.012.73-.14 1.096-.218.158-.033.318-.056.474-.096.414-.108.859.021 1.263-.176.483-.235.979-.444 1.46-.682.914-.456 1.851-.872 2.697-1.455.087-.061.186-.108.283-.155.626-.302 1.286-.516 1.874-.917.529-.36 1.139-.605 1.716-.895.625-.314 1.259-.61 1.88-.932 1.049-.547 2.104-1.08 3.129-1.675 1.16-.675 2.398-1.219 3.6-1.822 1.3-.652 2.626-1.256 3.883-1.98 1.07-.616 2.254-1.009 3.269-1.733.344-.246.773-.377 1.166-.551.332-.146.633-.078.884.174.113.113.223.235.3.372.046.08.064.219.025.295-.249.481-.578.886-1.049 1.191-1.081.7-2.08 1.524-3.252 2.085-.097.047-.2.092-.276.165-.719.676-1.626 1.034-2.479 1.492a52 52 0 0 0-2.804 1.593c-.688.426-1.395.811-2.116 1.168-.722.358-1.385.812-2.128 1.142-.731.325-1.373.848-2.097 1.197-.919.444-1.766 1.014-2.69 1.447q-.951.445-1.854.978c-.326.19-.622.413-1.007.488-.15.029-.293.131-.427.217a36 36 0 0 1-3.341 1.937c-1.487.753-2.921 1.603-4.382 2.401-1.176.642-2.341 1.312-3.559 1.878-.196.09-.401.168-.578.287-1.165.784-2.456 1.331-3.698 1.97-.049.024-.099.046-.143.075-1.169.768-2.43 1.376-3.65 2.056-.516.288-1.032.576-1.559.843-1.148.584-2.259 1.238-3.413 1.809-.815.404-1.627.808-2.38 1.333-.479.335-1.097.439-1.559.824-1.013.378-1.887 1.023-2.854 1.49-.432.208-.795.544-1.298.626-.201.032-.398.169-.568.296-.521.39-1.103.667-1.678.961-1.433.739-2.784 1.629-4.268 2.274-1.471 1.002-3.147 1.637-4.648 2.587-.18.114-.387.185-.581.273-.293.134-.615.226-.877.404-.76.52-1.599.886-2.411 1.307-.619.322-1.257.609-1.818 1.038-.253.192-.57.298-.856.446-.861.445-1.733.863-2.552 1.388-.361.23-.762.396-1.142.597-1 .524-2.032.988-2.975 1.617-.489.327-1.084.436-1.578.791-.474.341-1.047.542-1.568.82-.805.43-1.623.836-2.409 1.307-1.149.689-2.271 1.436-3.55 1.888-.855.56-1.797.963-2.679 1.473-.88.51-1.825.896-2.686 1.44-.362.231-.738.443-1.11.657-.233.134-.456.306-.708.38-.944.28-1.723.867-2.586 1.294-1.202.595-2.279 1.431-3.571 1.852-.854.667-1.886 1.022-2.808 1.578-1.24.745-2.494 1.48-3.846 2.02a2.6 2.6 0 0 0-.578.288c-1.016.716-2.17 1.179-3.257 1.762a36 36 0 0 0-2.21 1.323c-.277.175-.569.291-.862.425-.879.402-1.791.742-2.557 1.362-.203.164-.472.251-.713.37-1.206.598-2.414 1.188-3.615 1.796q-1.079.546-2.111 1.183c-1.278.79-2.639 1.436-3.958 2.153-.849.462-1.75.832-2.543 1.402a1.9 1.9 0 0 1-.574.293c-.845.238-1.542.758-2.272 1.196-.553.332-1.105.665-1.678.961-.812.42-1.613.853-2.407 1.308-1.539.882-3.126 1.679-4.692 2.511-.285.151-.565.316-.856.454-.579.277-1.045.768-1.707.887-.511.405-1.102.668-1.694.927a.7.7 0 0 0-.138.085c-1.194.839-2.577 1.333-3.815 2.086-1.703 1.037-3.55 1.803-5.26 2.821-.925.553-1.896 1.014-2.836 1.534-.846.469-1.649 1.027-2.552 1.372-.961.368-1.781.981-2.713 1.403-.877.396-1.767.798-2.556 1.37-.919.322-1.665.972-2.563 1.34-.442.182-.835.475-1.264.692-.381.195-.788.342-1.171.533-.814.407-1.535.998-2.438 1.231-1.33.931-2.867 1.472-4.273 2.257-.751.418-1.508.829-2.233 1.288a63 63 0 0 1-3.197 1.875c-.079.043-.115.165-.172.251-.038.014-.08.022-.113.045-.019.013-.024.048-.035.074.004-.039.046-.086.09-.132m-15.88 3.56v-.015c.108 0 .217-.006.324.002.78.061 1.49-.143 2.155-.541.184-.109.38-.201.572-.297 1.395-.697 2.787-1.402 4.188-2.086.482-.235 1.006-.383 1.479-.634 1.092-.58 2.192-1.153 3.239-1.808 2.053-1.284 4.219-2.366 6.326-3.552.749-.422 1.576-.713 2.299-1.17 1.278-.805 2.64-1.445 3.975-2.139.476-.248.935-.526 1.406-.786q.566-.309 1.139-.606c.669-.348 1.34-.688 2.006-1.038.808-.427 1.588-.913 2.421-1.28 1.087-.478 2.061-1.148 3.116-1.679.065-.032.078-.175.099-.27.003-.011-.089-.063-.139-.066-1.52-.09-2.804-.671-3.848-1.783-.613-.654-.982-1.396-.966-2.308.008-.483.007-.964.131-1.438.049-.185-.11-.312-.278-.264-.73.21-1.345.662-2.039.95-.289.121-.532.353-.802.525-.272.174-.542.352-.829.499-1.579.804-3.171 1.58-4.683 2.512-.822.505-1.68.964-2.557 1.368-.929.427-1.767 1.014-2.703 1.42a6 6 0 0 0-.994.536c-1.118.75-2.343 1.31-3.501 1.989-.602.352-1.259.61-1.869.95-.606.338-1.139.811-1.841.967-.906.571-1.825 1.118-2.814 1.54-.417.353-.982.448-1.412.752-.667.47-1.416.766-2.129 1.138-.478.247-.997.434-1.429.743-.71.506-1.484.856-2.291 1.157-.351.132-.676.334-1.027.466-.61.228-.929.705-1.144 1.271-.113.299-.185.616-.285.921-.197.598-.097 1.171.184 1.711.172.331.436.614.604.948.236.466.633.732 1.087.91.751.297 1.516.557 2.348.483.158-.009.32.002.482.002M330.877 108.75c1.401-.026 2.802-.048 4.203-.084.212-.005.422-.072.633-.108.317-.053.637-.162.951-.143.937.055 1.819-.225 2.692-.459 1.141-.304 2.275-.635 3.424-.912 1.108-.536 2.367-.712 3.406-1.421.26-.179.585-.259.876-.395 1.419-.655 2.683-1.566 3.981-2.416q.203-.131.38-.296c.775-.743 1.582-1.459 2.309-2.248 1.017-1.106 1.957-2.278 2.603-3.65q.342-.729.73-1.434c.757-1.373 1.2-2.859 1.58-4.365.17-.672.314-1.35.46-2.027.066-.312.128-.629.157-.948.06-.639.043-1.282.255-1.905.083-.245.055-.531.06-.799.025-1.284.112-2.568-.105-3.85-.06-.355.081-.717-.057-1.1-.119-.334.102-.737-.095-1.091-.133-1.388-.497-2.73-.806-4.082-.047-.208-.16-.409-.173-.617a4.3 4.3 0 0 0-.479-1.688c-.116-.233-.137-.513-.208-.77-.043-.152-.072-.321-.156-.45-.589-.904-.784-1.99-1.369-2.897-.144-.702-.665-1.215-.94-1.854-.255-.592-.559-1.159-.982-1.655-.802-1.525-1.878-2.86-2.925-4.218-.33-.427-.676-.83-1.047-1.217-.597-.62-1.22-1.212-1.822-1.827-.978-1-2.024-1.915-3.211-2.673-.903-.576-1.767-1.215-2.644-1.83a7.8 7.8 0 0 0-1.861-.954c-.252-.09-.514-.168-.745-.298-.56-.316-1.093-.687-1.767-.726-.756-.436-1.626-.542-2.43-.84-.211-.077-3.183-.652-3.43-.723-.627-.177-1.292-.16-1.901-.349-.531-.166-1.055-.196-1.591-.204-1.509-.023-3.017-.055-4.527-.04-.746.006-1.492.105-2.238.163-.158.013-.338.092-.472.044-.683-.248-1.387-.145-2.082-.172-.486-.02-.969-.042-1.455-.05-.649-.013-1.136-.283-1.454-.852-.394-.701-.843-1.377-1.173-2.106-.599-1.325-1.487-2.485-2.102-3.799a1 1 0 0 0-.17-.272c-.659-.726-1.082-1.59-1.527-2.45a6 6 0 0 0-.813-1.19c-.817-.927-1.517-1.943-2.284-2.907-.333-.419-.772-.76-1.082-1.191-1.01-1.405-2.241-2.603-3.528-3.742-1.004-.89-2.029-1.76-3.017-2.669-.118-.107-.252-.254-.392-.272-.545-.067-.771-.561-1.176-.813-.419-.26-.692-.66-.979-1.054-.249-.344-.576-.634-.861-.956-.068-.077-.142-.185-.142-.28-.005-.375.065-.74.314-1.038.062-.072.181-.11.281-.13a.8.8 0 0 1 .321-.003c.524.112 1.06.2 1.568.363.765.247 1.511.531 2.194.99 1.428.961 2.854 1.92 4.095 3.123.155.15.297.318.477.433.6.384 1.027.923 1.477 1.463.616.74 1.335 1.398 2.011 2.089.136.14.442.019.502-.194.042-.154.11-.309.111-.465.01-1.608.01-3.215.01-4.823 0-.161.015-.334-.039-.48-.276-.777-.215-1.588-.255-2.388-.036-.693.042-1.396-.246-2.06a.7.7 0 0 1-.039-.318c.055-1.247-.29-2.44-.545-3.639-.156-.734-.076-1.505-.381-2.21-.087-1.347-.496-2.621-.881-3.902a15 15 0 0 1-.393-1.718c-.128-.743-.382-1.447-.604-2.163-.222-.714-.493-1.418-.468-2.187.01-.277-.14-.512-.309-.726-.191-.245-.155-.49-.021-.744.051-.093.072-.207.135-.29q.59-.762 1.197-1.512c.144-.179.54-.234.747-.129.976.49 1.78 1.209 2.52 1.986.705.742 1.464 1.407 2.26 2.054.741.602 1.485 1.225 2.108 1.967.172.204.366.405.589.544.833.518 1.492 1.23 2.183 1.902.962.935 1.883 1.912 2.836 2.857a11 11 0 0 1 1.686 2.144q.124.207.263.404c.897 1.289 1.471 2.72 1.948 4.205.475 1.473.457 2.968.214 4.452-.18 1.1-.459 2.202-1.044 3.187-.524 1.487-1.522 2.69-2.42 3.95-.372.52-.799 1.005-1.209 1.501-.758.92-1.686 1.65-2.66 2.323-.404.278-.899.383-1.368.457-.58.091-1.18.062-1.77.053-.143-.002-.293-.123-.419-.216-.081-.06-.186-.182-.172-.254.063-.314.107-.657.269-.92.364-.592.715-1.192 1.202-1.707 1.032-1.093 2.061-2.192 3.033-3.336 1.369-1.611 2.384-3.428 2.96-5.47.043-.155.097-.313.102-.47.03-.963.056-1.916-.254-2.863-.319-.973-.673-1.924-1.246-2.774-.388-.577-.855-1.1-1.29-1.645-.234-.293-.496-.567-.71-.874-.558-.803-1.257-1.486-2.014-2.075-.77-.598-1.442-1.287-2.146-1.949-.626-.587-1.2-1.233-1.933-1.7-.039-.024-.128-.028-.156-.003a.9.9 0 0 0-.174.239.24.24 0 0 0-.008.157c.155.623.339 1.238.464 1.867.144.733.4 1.436.476 2.192.074.74.294 1.457.378 2.207.089.792.219 1.588.374 2.374.096.478.149.95.175 1.43.034.641.042 1.282.239 1.91.094.299.073.635.083.957.031.964.071 1.93.071 2.894 0 .544.218 1.058.202 1.589-.014.53-.157 1.054-.207 1.585-.04.427-.019.858-.039 1.286-.013.267-.011.544-.082.798-.274.982-.416 1.99-.596 2.99-.084.467-.457.902-.273 1.391.149.393.421.74.634 1.11.324.553.583 1.152 1.079 1.59.625 1 1.235 2.01 1.877 2.998.966 1.49 1.743 3.08 2.534 4.662.134.268.378.361.676.273l.154-.05c.307-.095.621-.18.924-.288.409-.15.828-.218 1.263-.247.429-.029.853-.106 1.28-.156 1.116-.13 3.547-.183 4.674-.108.107.008.222-.006.321.028.836.281 1.705.21 2.562.244 1.106.045 2.445.276 3.641.614.827.233 1.665.43 2.496.651.468.124.94.235 1.392.401.807.295 1.6.628 2.403.942 1.105.431 2.169.936 3.168 1.583.538.351 1.147.596 1.684.948.762.5 1.503 1.038 2.226 1.595a39 39 0 0 1 3.964 3.541c1.623 1.651 3.102 3.416 4.38 5.345.768 1.162 1.577 2.299 2.252 3.522.675 1.221 1.349 2.438 1.809 3.761.333.961.785 1.878 1.069 2.857.492 1.695 1.002 3.383 1.345 5.12.178.895.325 1.785.344 2.697.012.588.025 1.169.199 1.75.12.4.098.85.099 1.276.003 1.072.012 2.145-.037 3.217-.029.638-.183 1.27-.243 1.908-.06.639-.061 1.273-.233 1.908-.179.667-.301 1.357-.417 2.04-.236 1.384-.741 2.68-1.223 3.983a18 18 0 0 1-.906 2.059 32 32 0 0 1-1.368 2.367 22 22 0 0 1-2.904 3.638c-1.132 1.158-2.389 2.161-3.645 3.169-.581.466-1.241.851-1.906 1.199-1.047.547-2.063 1.146-3.145 1.633a39.2 39.2 0 0 1-7.483 2.489c-1.076.056-2.102.458-3.188.449-.215-.002-.438-.007-.644.043-1.538.383-3.108.241-4.664.283-.701.02-1.401-.004-2.102-.016-.807-.011-1.619.037-2.398-.254-.758-.015-1.483-.214-2.218-.377-.733-.161-1.482-.243-2.221-.38a11 11 0 0 1-1.251-.299c-1.435-.451-2.901-.793-4.307-1.344-1.105-.433-2.152-.982-3.236-1.448-2.247-.966-4.169-2.429-6.148-3.808-.262-.184-.481-.43-.727-.638-.328-.277-.663-.544-.996-.814-.877-.713-1.71-1.466-2.37-2.395a4 4 0 0 0-.528-.605c-.901-.856-1.582-1.886-2.331-2.863-1.151-1.499-1.965-3.194-2.956-4.784-.394-.63-.644-1.352-.929-2.045-.366-.89-.777-1.766-1.032-2.698a346 346 0 0 1-1.112-4.186 3 3 0 0 1-.071-.638c-.019-.535-.045-1.065-.207-1.588-.092-.301-.102-.636-.104-.956-.008-1.822-.005-3.646-.003-5.468 0-.376.037-.745.173-1.105.075-.197.131-.419.123-.626-.029-.765.288-1.467.372-2.213.078-.69.36-1.341.588-1.998.14-.404.237-.822.362-1.233a9 9 0 0 1 .256-.758c.686-1.69 1.428-3.359 2.338-4.94.72-1.251 1.574-2.428 2.409-3.612 1.181-1.677 2.664-3.09 4.164-4.475.986-.907 2.115-1.65 3.259-2.356q.688-.421 1.38-.832c1.074-.64 2.27-.97 3.456-1.313a2.17 2.17 0 0 1 1.276.02c.143.047.267.171.376.282.137.142.121.478-.016.586-.168.132-.332.275-.52.373-.809.427-1.595.887-2.376 1.364-1.243.758-2.379 1.659-3.526 2.543a8.5 8.5 0 0 0-1.16 1.117c-.498.563-.976 1.138-1.597 1.577a1.2 1.2 0 0 0-.325.356c-.447.735-1.079 1.329-1.529 2.065-.278.455-.636.86-.955 1.292-.445.604-.87 1.217-1.132 1.93-.11.3-.253.597-.431.86-.663.986-1.198 2.027-1.541 3.165-.662 1.242-.9 2.628-1.337 3.946-.184.554-.283 1.142-.366 1.723-.187 1.321-.495 2.63-.467 3.977.014.697.005 1.393-.005 2.09-.01.699-.026 1.394.204 2.07.052.15.069.316.074.475.02.698.057 1.394.34 2.049.053.864.353 1.667.592 2.49.135.463.277.92.447 1.373.168.449.291.915.435 1.374.513.647.67 1.449.955 2.194.076.2.163.397.273.58.532.868 1.026 1.765 1.624 2.586.568.777 1.076 1.606 1.787 2.275.92 1.262 2.027 2.352 3.151 3.432.434.417.987.653 1.392 1.086.408.436.903.76 1.388 1.098 1.056.735 2.087 1.518 3.228 2.12 1.427.751 2.826 1.551 4.344 2.13.953.364 1.917.696 2.861 1.076.755.302 1.556.365 2.317.618.76.254 1.559.381 2.339.568 1.168.278 2.348.254 3.527.301.699.027 1.401.005 2.102.005-.011.017-.011.032-.011.048M190.769 38.107c0-.512-.003-1.048 0-1.584.006-.858.04-1.716-.288-2.538-.078-.193-.055-.425-.099-.634-.173-.845-.432-1.656-.929-2.38-.393-.572-.726-1.192-1.164-1.728-.505-.618-1.067-1.192-1.641-1.754-.887-.866-1.909-1.566-2.83-2.389-.204-.183-.44-.318-.715-.344-.442-.042-.825-.245-1.218-.414-.591-.254-1.139-.62-1.819-.608-.642-.269-1.293-.522-1.922-.82-.18-.085-.319-.29-.434-.468a.75.75 0 0 1-.111-.445c.03-.318.128-.63.162-.947.038-.35.226-.597.491-.795.431-.32.848-.668 1.316-.927a4.7 4.7 0 0 0 1.013-.784c.998-.977 2.004-1.947 2.999-2.926.112-.11.185-.26.264-.399a.23.23 0 0 0 .011-.158c-.037-.124-.124-.18-.223-.135-.196.089-.408.164-.569.298-.499.409-1.041.761-1.541 1.164-.584.471-1.1 1.022-1.822 1.305-.137.053-.229.216-.344.327-.361.349-.803.53-1.293.603-.485.07-.971.052-1.446-.058-.385-.088-.68-.285-.775-.716-.104-.467-.284-.913-.387-1.386-.249-1.146-.456-2.313-1.035-3.362-.235-.427-.198-.929-.421-1.376-.482-.958-.913-1.936-1.532-2.825-.489-.7-.889-1.463-1.34-2.189-.047-.077-.18-.101-.273-.15-.042.092-.123.184-.122.274.008.266.076.53.071.794-.013.539.072 1.044.324 1.53.121.232.201.507.212.767.024.55.21 1.043.425 1.538.106.242.183.507.208.77.069.758.323 1.46.631 2.143.199.444.375.889.389 1.383.009.274.098.525.251.752.432.64.494 1.4.673 2.12a.65.65 0 0 1-.158.603 8 8 0 0 1-.822.767c-.112.09-.32.158-.445.118-.519-.17-1.05-.222-1.591-.25-.215-.01-.44-.012-.639-.083-.624-.224-1.27-.214-1.917-.22-.429-.002-.861.019-1.275-.154-.139-.058-.332-.082-.467-.033-.591.207-1.165.146-1.743-.036-.034-.011-.105.039-.131.079-.016.026.008.092.032.126.165.231.434.304.67.426a18 18 0 0 0 2.976 1.23c.951.291 1.724.845 2.506 1.408.27.195.43.478.576.766a.55.55 0 0 1 .045.3c-.013.102-.087.196-.115.297-.102.374-.259.683-.645.866-.465.22-.947.301-1.411.124-1.406-.537-2.796-1.117-4.189-1.685-.348-.142-.678-.343-1.035-.446-.432-.124-.74-.436-1.122-.626-.432-.216-.786-.55-1.263-.705-.403-.13-.818-.319-1.136-.589-.458-.386-.956-.687-1.479-.964-.73-.386-1.201-1.065-1.806-1.592a.65.65 0 0 1-.163-.273 30 30 0 0 1-.393-1.222c-.088-.295.06-.649.328-.842.131-.095.275-.174.395-.28.498-.438 1.076-.484 1.666-.285.416.142.829.208 1.262.242.318.024.63.124.945.183.211.04.423.103.635.105 1.132.006 2.234.273 3.357.376.37.034.717.118 1.105.026.414-.098.848-.018 1.272.114.729.227 1.488.18 2.24.13.106-.007.28-.273.251-.37-.014-.05-.016-.106-.039-.154-.537-1.175-.854-2.419-1.147-3.67a8 8 0 0 0-.226-.767 8.8 8.8 0 0 1-.411-1.875c-.078-.684-.262-1.362-.453-2.027a4.7 4.7 0 0 1-.198-1.263 4 4 0 0 0-.208-1.263c-.086-.247-.096-.525-.107-.79-.024-.537-.015-1.073-.041-1.609-.037-.764.122-1.485.415-2.188a.49.49 0 0 1 .339-.308c.421-.101.85-.151 1.283-.09.219.03.408.114.551.295 1.119 1.437 2.284 2.84 3.295 4.36.267.4.573.777.848 1.171.152.22.337.44.403.686.116.433.388.763.625 1.119.445.67.922 1.32 1.119 2.12.431.514.513 1.163.71 1.77.182.555.502 1.059.575 1.662.037.31.223.6.332.903.428 1.198.375 1.18 1.485.4.087-.062.191-.109.265-.183.875-.877 1.93-1.542 2.835-2.383.197-.184.38-.39.603-.533.835-.53 1.398-1.312 2-2.063.267-.333.477-.707.819-.989a3.9 3.9 0 0 1 1.731-.816c.228-.048.422.02.594.166.289.25.53.53.601.924.047.262.091.528.174.78.155.479.147.949.005 1.422-.046.154-.144.309-.136.459.053 1.004-.405 1.873-.722 2.78-.233.667-.573 1.267-1.129 1.73a1.38 1.38 0 0 0-.486.812 1.04 1.04 0 0 1-.205.43 65 65 0 0 1-1.536 1.86c-.42.488-.859.956-1.453 1.259-.239.122-.356.391-.457.645-.072.176-.038.343.09.419.516.3 1.091.457 1.654.628.471.143.903.336 1.315.597.5.315 1.045.571 1.505.935.708.56 1.524 1.007 2.022 1.815.131.213.392.369.625.491.344.182.621.44.848.73.623.804 1.323 1.564 1.783 2.471.601 1.19 1.171 2.398 1.286 3.768.053.634.218 1.267.398 1.88.137.473.188.946.192 1.428a81 81 0 0 1-.013 2.412 2.8 2.8 0 0 1-.108.79 3.1 3.1 0 0 0-.144 1.11c.055.817-.489 3.71-.678 4.594-.022.105-.029.221-.082.31-.486.801-.596 1.712-.766 2.602-.213 1.115-.653 2.158-1.129 3.167-.503 1.068-.854 2.2-1.446 3.224-.306 1.154-1 2.131-1.47 3.213-.299.687-.695 1.33-1.017 2.007a15 15 0 0 1-1.385 2.353c-.319.438-.578.9-.809 1.386a24 24 0 0 1-2.875 4.638 25 25 0 0 0-1.473 2.109c-.233.365-.474.711-.783 1.013-.191.187-.398.38-.522.61-.414.776-1.087 1.322-1.668 1.951-.364.394-.774.753-1.101 1.175-.925 1.196-1.996 2.255-3.122 3.25-1.288 1.138-2.536 2.316-3.791 3.487-.586.548-1.226 1.035-1.843 1.55-.684.251-1.086.873-1.666 1.25-.551.355-.979.835-1.481 1.234-1.131.901-2.239 1.833-3.482 2.586-.32.195-.669.351-.885.681-.666.449-1.286.972-2.093 1.186a1.3 1.3 0 0 0-.541.33c-.587.568-1.294.954-2.011 1.32-.817.417-1.584.913-2.365 1.387-.867.528-1.693 1.12-2.647 1.51a9 9 0 0 0-1.825 1.022c-.662.478-1.406.787-2.11 1.175-.612.336-1.28.571-1.83 1.02-.12.099-.286.14-.434.205-.294.128-.598.24-.885.388-1.627.835-3.341 1.487-4.983 2.291-.294.144-.59.256-.919.282-.105.008-.233.016-.309.076-.785.615-1.836.592-2.661 1.107-1.304.496-2.563 1.117-3.942 1.41-.26.055-.506.179-.755.28-.4.166-.806.285-1.243.335-.315.035-.626.146-.927.254-1.115.399-2.276.636-3.412.961-.877.251-1.791.341-2.667.605-.252.076-.532.063-.799.081-.377.025-.746.069-1.108.199-.249.09-.523.126-.788.15-.534.048-1.065.058-1.597.196-.404.106-.882.129-1.278.02-.744-.205-1.495-.192-2.244-.213-.921-.026-1.651-.422-2.293-1.04-.298-.286-.398-.632-.34-1.023.023-.152.094-.304.177-.436.053-.086.166-.131.25-.197 1.235-.949 2.541-1.794 3.884-2.583.833-.489 1.69-.942 2.415-1.598.196-.177.435-.329.68-.428.558-.227 1.032-.594 1.483-.961.623-.509 1.332-.894 1.932-1.44.55-.5 1.212-.878 1.815-1.324.648-.478 1.271-.991 1.927-1.455 1.054-.743 2.028-1.588 3.063-2.353 1.079-.796 2.099-1.667 3.142-2.506.419-.336.837-.661 1.144-1.112.118-.172.298-.314.476-.431.819-.538 1.479-1.233 2.098-1.978.169-.203.382-.37.575-.554.388-.37.794-.722 1.092-1.18.115-.177.255-.359.43-.47.38-.243.581-.624.846-.957.332-.417.567-.92 1.063-1.193.089-.048.151-.151.216-.235 1.074-1.403 2.151-2.803 3.166-4.249.184-.262.364-.53.513-.814.226-.431.487-.839.828-1.185.422-.426.707-.935.989-1.456.433-.8.788-1.65 1.436-2.318.282-.573.57-1.143.845-1.72.254-.532.437-1.106.756-1.596a7.6 7.6 0 0 0 .76-1.585c.146-.404.303-.792.549-1.156.268-.395.485-.836.525-1.334.005-.053.007-.112.031-.157q.532-.988.838-2.067c.374-.423.41-.97.575-1.476a125 125 0 0 1 1.268-3.634c.291-.805.507-1.63.819-2.43.291-.746.572-1.494.731-2.29.113-.57.349-1.124.581-1.663.296-.69.666-1.346.746-2.11.016-.153.107-.303.176-.448.306-.627.502-1.295.733-1.952.374-1.06.712-2.133 1.188-3.155.203-.436.357-.886.464-1.363.116-.517.349-1.009.539-1.51.15-.4.343-.787.38-1.223.01-.106.014-.235.076-.309.506-.615.518-1.386.705-2.103.162-.62.355-1.24.61-1.827.345-.785.635-1.589.934-2.389q.082-.226.205-.433c1.235-2.023 2.947-3.524 5.086-4.548.936-.447 1.922-.686 2.969-.586.106.01.21.039.317.057.171.027.407.254.416.439.016.319.029.639.006.956a.64.64 0 0 1-.348.51c-.328.184-.645.398-.992.54-1.262.52-2.302 1.372-3.368 2.187-.086.064-.182.128-.237.215-.6.945-1.38 1.78-1.698 2.897-.235.821-.557 1.618-.824 2.43-.116.355-.298.693-.285 1.082a.9.9 0 0 1-.04.317c-.482 1.417-.95 2.84-1.464 4.246-.385 1.053-.892 2.06-1.151 3.163-.097.41-.401.776-.485 1.186-.163.8-.5 1.523-.851 2.245-.047.097-.1.193-.125.296-.346 1.463-.946 2.836-1.483 4.233-.055.144-.025.317-.065.469-.11.41-.197.835-.367 1.221-.216.493-.469.963-.482 1.516a.7.7 0 0 1-.088.306c-.464.797-.633 1.7-.933 2.556-.125.352-.242.713-.411 1.044-.416.815-.696 1.674-.942 2.55-.159.566-.34 1.123-.634 1.645a6 6 0 0 0-.568 1.326c-.101.357-.3.686-.452 1.029-.15.34-.296.685-.446 1.028-.299.686-.557 1.389-.995 2.012-.243.344-.356.78-.6 1.122-.224.31-.374.647-.541.983-.429.863-.815 1.754-1.493 2.467-.342.36-.253.945-.675 1.259a7.3 7.3 0 0 1-1.217 1.885c-.14.156-.241.354-.343.54-.336.614-.715 1.177-1.237 1.671-.418.396-.673.954-1.047 1.412-.304.371-.579.764-.906 1.123-.321.35-.521.806-.824 1.175-.27.33-.682.558-.906.91-.788 1.242-1.911 2.17-2.923 3.2-.526.536-1.104 1.024-1.529 1.655-.088.13-.204.256-.335.34-.599.38-1.052.915-1.57 1.382a28 28 0 0 1-2.118 1.729c-.435.32-.857.64-1.228 1.035-.517.547-1.132.975-1.734 1.429-1.542 1.165-3.179 2.197-4.713 3.373-.21.163-.45.288-.678.427-.458.28-.934.53-1.348.882-.202.17-.451.286-.679.425-.185.111-.421.177-.547.333-.458.566-1.129.803-1.715 1.172q-1.225.774-2.427 1.58c-.062.04-.066.176-.079.269-.002.016.087.058.139.067.377.066.754.042 1.119-.066.929-.275 1.866-.494 2.837-.592.475-.048.948-.204 1.401-.368a16 16 0 0 1 2.165-.617c1.079-.23 4.727-1.456 5.819-1.881.25-.097.51-.164.766-.243.255-.08.522-.132.767-.24.983-.431 2.027-.72 2.97-1.25.322-.183.696-.297 1.06-.376.43-.093.846-.25 1.186-.486.631-.438 1.362-.616 2.034-.936.627-.3 1.223-.67 1.849-.971.579-.278 1.184-.502 1.772-.766.142-.064.245-.214.388-.285.571-.285 1.037-.764 1.702-.887.196-.035.364-.217.547-.326.23-.139.456-.285.694-.408.424-.217.93-.3 1.21-.75.984-.43 1.827-1.126 2.856-1.48.348-.121.66-.355.975-.557.631-.406 1.271-.8 1.872-1.246.361-.267.824-.28 1.165-.533.343-.254.618-.597.952-.866.249-.2.542-.347.822-.508.834-.48 1.69-.926 2.383-1.613 1.026-.584 1.88-1.424 2.943-1.957a1.3 1.3 0 0 0 .388-.283c.566-.643 1.424-.979 1.862-1.76.075-.132.225-.233.358-.32.589-.385 1.097-.862 1.615-1.332.158-.145.319-.295.503-.403.519-.302.922-.735 1.352-1.141.352-.332.674-.697 1.114-.924a.7.7 0 0 0 .255-.195c.706-.96 1.751-1.575 2.524-2.465.175-.202.324-.427.49-.634.101-.126.193-.28.326-.351.692-.369 1.089-1.008 1.558-1.592.369-.459.807-.861 1.221-1.281.264-.267.555-.509.685-.88a.6.6 0 0 1 .17-.27c.747-.563 1.106-1.445 1.749-2.095.147-.148.241-.352.341-.54.277-.524.565-1.037.998-1.454.114-.11.204-.251.277-.393.435-.866 1.019-1.633 1.557-2.433.352-.527.763-1.035.894-1.694.05-.254.193-.505.346-.72.879-1.232 1.424-2.638 2.125-3.963.55-1.041.993-2.133 1.553-3.17.33-.61.573-1.267.833-1.913.502-1.24.931-2.509 1.56-3.697.152-.286.244-.592.249-.924.003-.212-.008-.44.066-.634.5-1.303.667-2.688 1.013-4.028.096-.369.156-.73.162-1.108.01-.845.032-1.702.052-2.584m56.909 10.105c.044-.098.131-.2.123-.293-.06-.587.122-1.153.141-1.733.034-1.086.419-2.087.765-3.096.068-.199.206-.374.316-.556.252-.412.493-.827.636-1.295.061-.202.171-.39.275-.577.288-.515.61-1.01.869-1.538.309-.628.642-1.235 1.103-1.768.104-.12.202-.252.272-.394.477-.97 1.199-1.77 1.83-2.635.849-1.165 1.742-2.3 2.533-3.507.068-.104.028-.202-.092-.265-.191-.098-.375-.219-.577-.279a11 11 0 0 0-1.253-.3c-.139-.025-.351.03-.441.128-.436.473-.847.968-1.251 1.468a2.3 2.3 0 0 0-.324.55c-.267.641-.511 1.293-.776 1.935-.123.296-.236.608-.426.861a3.7 3.7 0 0 0-.616 1.296 1.8 1.8 0 0 1-.275.58c-.68.904-1.063 1.98-1.731 2.89-.22.3-.386.637-.599.941-.044.063-.201.092-.29.071-.272-.061-.517-.33-.535-.537-.146-1.684.116-3.32.721-4.884.502-1.295 1.02-2.588 1.694-3.816a39 39 0 0 1 1.772-2.874 4.3 4.3 0 0 1 1.115-1.15 2.5 2.5 0 0 1 1.347-.474c.602-.032 1.172.01 1.737.251.491.21 1.027.322 1.517.538.984.433 1.961.88 2.993 1.195.219.068.36.239.44.441.101.247.195.5.246.76.03.146.015.343-.063.462a37 37 0 0 1-1.11 1.576c-.317.431-.652.85-.975 1.276a82 82 0 0 0-4.103 5.955c-.796 1.273-1.529 2.582-2.254 3.897-.578 1.047-.828 2.198-1.107 3.34-.048.202-.052.442.013.637.199.61.468 1.168.976 1.623 1.003.9 2.046 1.702 3.266 2.318 1.292.652 2.476 1.508 3.731 2.236.741.43 1.528.785 2.293 1.173.058.16.163.274.33.325-.049.206-.079.419-.15.615-.128.35-.248.71-.429 1.032-.185.328-.39.635-.484 1.009-.04.162-.382.259-.563.183-.445-.186-.913-.34-1.328-.578-1.042-.597-2.194-.865-3.337-1.166a3.68 3.68 0 0 0-2.52.217c-1.236.554-2.07 1.506-2.743 2.63a.8.8 0 0 0-.118.46c.076.922-.217 1.803-.283 2.709-.066.924-.411 1.77-.777 2.604-.051.12-.247.237-.385.246q-.721.058-1.446.03c-.217-.009-.409-.163-.503-.364a4.96 4.96 0 0 1-.303-3.448c.17-.634.107-1.281.272-1.904.087-.328-.089-.63-.092-.95a22 22 0 0 0-.054-1.286 3.3 3.3 0 0 0-.089-.632c-.369-1.392-.656-2.809-1.2-4.151-.261-.644-.46-1.316-.765-1.938-.471-.957-.913-1.931-1.602-2.776-.812-.995-1.532-2.065-2.328-3.074-.295-.374-.672-.696-1.05-.99-1.186-.92-2.382-1.83-3.782-2.425a.7.7 0 0 1-.137-.084c-.657-.491-1.456-.684-2.191-1.006-.585-.256-1.23-.38-1.848-.562-.779.201-1.462-.212-2.192-.341a7 7 0 0 0-.961-.111c-1.505-.07-2.991.143-4.477.335-.579.074-1.126.371-1.703.465-.869.14-1.622.544-2.418.862a10.4 10.4 0 0 0-1.975 1.066c-.311.21-.651.378-.968.58a5.5 5.5 0 0 0-.647.47c-.446.386-.888.777-1.315 1.182-1.131 1.069-2.218 2.17-3.047 3.506-.365.589-.799 1.144-1.132 1.752-.332.606-.487 1.304-.932 1.855-.413 1.044-.829 2.089-1.238 3.136a1.4 1.4 0 0 0-.112.466c-.006.651-.189 1.261-.372 1.88-.105.357-.23.745-.188 1.099.072.6-.131 1.165-.105 1.754.026.587-.053 1.18-.04 1.767.016.695.016 1.402.149 2.08.105.53.187 1.057.204 1.588.019.654.181 1.27.362 1.886.089.308.231.61.26.923.073.761.343 1.453.651 2.139.199.44.474.86.59 1.32.217.85.662 1.587 1.097 2.317.494.828.881 1.72 1.502 2.472.54 1.252 1.391 2.281 2.352 3.23.439.746 1.152 1.251 1.698 1.908.511.613 1.132 1.149 1.765 1.643a56 56 0 0 0 4.187 2.995c.858.55 1.704 1.122 2.649 1.525.493.21.998.395 1.485.62.78.361 1.561.703 2.406.897.467.108.911.324 1.367.485.252.088.505.207.767.236 1.022.118 1.998.412 2.969.723a5.5 5.5 0 0 0 1.585.257c.648.012 1.314-.056 1.934.083.66.148 1.281-.09 1.919-.005.053.006.108-.005.161.003.478.063.953.16 1.432.008.534.222 1.058-.024 1.588-.035.43-.01.876.024 1.287-.075 1.046-.249 2.122-.31 3.16-.595.931-.256 1.888-.404 2.764-.85.378-.193.797-.325 1.212-.434.529-.14 1-.393 1.47-.654.468-.259.864-.648 1.421-.737.419-.335.814-.706 1.263-.995a6.5 6.5 0 0 0 1.133-.893c.223-.227.495-.412.759-.594a7.7 7.7 0 0 0 1.742-1.662c.869-1.15 1.832-2.236 2.549-3.5.661-1.166 1.307-2.341 1.778-3.598.301-.802.537-1.629.848-2.427.389-1.004.498-2.075.763-3.106.159-.617.08-1.274.203-1.911.098-.505-.049-1.05.111-1.564-.092-.47.015-.965-.077-1.415a8 8 0 0 1-.162-1.592c-.007-.483-.039-.96-.182-1.43-.09-.302-.098-.63-.148-.946-.042-.263-.08-.529-.141-.788-.414-1.73-1.291-3.277-2.002-4.89-.14-.32-.359-.674-.791-.743-.048-.17-.144-.293-.328-.325-.021-.158.013-.355-.07-.465-.479-.641-.883-1.335-1.462-1.91a52 52 0 0 0-5.475-4.742c-.34-.256-.748-.424-1.122-.635-.208-.117-.276-.315-.283-.536-.005-.16.007-.322.021-.48.032-.344.24-.52.515-.437.361.108.718.224 1.077.338.411.13.812.304 1.231.385 1.516.29 2.795 1.105 4.118 1.815.325.176.607.444.88.702.471.44 1.076.714 1.487 1.231.366.46.761.898 1.144 1.346.21.244.434.478.634.729.201.25.408.502.568.777.46.787.926 1.573 1.34 2.384.535 1.05.99 2.127 1.272 3.285.213.88.587 1.72.747 2.622.047.262.146.518.176.782.183 1.54.428 3.077.369 4.638-.029.75-.014 1.502-.03 2.252-.007.267.008.554-.081.797-.209.57-.177 1.162-.261 1.743-.107.738-.212 1.49-.44 2.197-.477 1.475-.854 2.992-1.615 4.364-.733 1.982-1.917 3.709-3.104 5.43a8 8 0 0 1-.699.883c-.762.832-1.487 1.706-2.325 2.458-.756.677-1.432 1.464-2.354 1.945-.74.723-1.699 1.125-2.536 1.705a1 1 0 0 1-.137.082c-.385.192-.762.404-1.16.568-1.288.533-2.51 1.226-3.869 1.584-.883.232-1.763.473-2.648.702a3.6 3.6 0 0 1-.638.096c-.43.03-.862.044-1.268.214a.5.5 0 0 1-.156.042c-1.129.034-2.242.254-3.367.323-1.021.063-2.048.03-3.072.034-.486.002-.969.002-1.437-.172a1.3 1.3 0 0 0-.474-.087c-1.307.037-2.552-.33-3.815-.57-.473-.09-.963-.1-1.446-.127a3.3 3.3 0 0 1-1.098-.243c-.446-.183-.91-.314-1.375-.452-2.378-.703-4.68-1.597-6.803-2.902-.824-.507-1.706-.91-2.513-1.45-1.252-.835-2.464-1.712-3.605-2.7-.773-.667-1.525-1.343-2.182-2.124a4 4 0 0 0-.337-.347c-1.233-1.132-2.284-2.416-3.199-3.813-.116-.179-.265-.337-.401-.504a12.4 12.4 0 0 1-1.407-2.149c-.099-.19-.18-.392-.301-.568-1.083-1.566-1.649-3.368-2.295-5.12-.665-1.804-1.116-3.685-1.54-5.563-.116-.517-.09-1.066-.132-1.6-.034-.427-.017-.866-.12-1.275-.19-.745-.125-1.49-.109-2.239.228-.561.008-1.168.18-1.736-.036-.976.222-1.91.414-2.85.183-.89.393-1.773.678-2.637.217-.66.409-1.33.644-1.983.18-.502.396-.995.618-1.48.22-.487.608-.89.715-1.435a.6.6 0 0 1 .164-.273c.532-.547.828-1.25 1.249-1.869 1.27-1.872 2.779-3.538 4.449-5.063.196-.179.432-.316.652-.469.574-.397 1.154-.787 1.723-1.19 1.016-.715 2.124-1.272 3.267-1.74 1.042-.427 2.131-.744 3.202-1.101.15-.05.315-.073.475-.084.646-.04 1.291-.05 1.911-.279.196-.072.426-.064.641-.066 1.293-.003 2.587-.004 3.88.008.267.004.543.036.794.118.419.137.845.166 1.275.179a4.7 4.7 0 0 1 1.422.257c1.523.526 3.081.953 4.553 1.624.343.156.681.3 1 .507.629.41 1.283.785 1.925 1.177.138.083.287.16.398.272.795.796 1.733 1.442 2.453 2.319.238.29.523.54.783.813 1.196 1.249 2.233 2.607 2.968 4.183.136.29.296.573.479.835.084.12.25.18.38.269-.008.359-.046.729.331.956.005.267.025.528.322.65.02.212-.008.443.067.634.331.85.537 1.734.772 2.61.137.516.297 1.026.453 1.538a.27.27 0 0 0 .093.125c.034.025.101.042.128.025.18-.116.372-.221.523-.367.39-.383.812-.699 1.354-.837.097-.025.18-.113.262-.179.107-.085.126-.196.028-.274-.549-.426-1.083-.877-1.664-1.255a5.6 5.6 0 0 1-1.692-1.692c-.087-.136-.181-.264-.348-.309-.024-.257.018-.547-.322-.65.002-.188.01-.375.005-.563-.016-.214-.139-.341-.332-.41Zm-133.237 83.341c-.017.267-.041.534-.047.801-.047 1.698-.047 1.698-.449 3.321-.063.259-.166.518-.173.779-.009.445-.158.835-.346 1.224-.495 1.022-1.123 1.945-1.958 2.73-1.347 1.267-2.862 2.265-4.611 2.894-.301.108-.626.15-.938.224-.209.049-.423.088-.622.162-.257.095-.495.238-.543.538-.123.763-.507 1.395-.929 2.026-.687 1.029-1.401 2.025-2.352 2.838-1.607 1.372-3.36 2.493-5.403 3.117-.41.126-.83.229-1.234.374-.36.128-.718.215-1.1.23-.269.009-.552.011-.798.099-.68.245-1.38.19-2.076.232-.882.053-1.7-.162-2.522-.439-1.558-.525-2.89-1.417-4.124-2.466-.241-.204-.436-.471-.622-.731-.436-.611-.847-1.234-1.113-1.949-.194-.523-.516-.948-1.168-.949-.103 0-.204-.066-.309-.089-.472-.1-.98-.116-1.41-.309-.78-.352-1.53-.787-2.264-1.233-.314-.19-.567-.487-.837-.746-.993-.953-1.807-2.004-2.354-3.028-.026-.047-.056-.092-.074-.142-.536-1.454-1.084-2.913-1.351-4.44a9.1 9.1 0 0 1 .003-3.045c.31-1.856.807-3.654 1.946-5.216.248-.34.374-.765.573-1.14.202-.378.427-.744.642-1.114.188-.323.32-.7.573-.962.542-.567.783-1.27 1.05-1.969.02-.05.028-.103.042-.154.207-.715.626-1.349.673-2.131.042-.687.279-1.362.266-2.063-.01-.504.202-.936.43-1.364.024-.046.068-.082.097-.127.142-.211.536-.298.719-.132.197.177.436.356.53.586.2.493.4 1.009.455 1.531.095.901.155 1.807-.133 2.708-.194.607-.176 1.264-.412 1.877-.269.699-.534 1.383-.918 2.039-.513.877-.982 1.784-1.508 2.654-.585.969-.984 2.031-1.36 3.086-.285.795-.53 1.63-.507 2.506.02.75.011 1.5.018 2.25.008.93.298 1.793.678 2.626.378.831.867 1.602 1.406 2.341.385.527.862.956 1.445 1.261.142.076.294.137.43.222.867.548 1.765.773 2.76.332.185-.082.426-.069.636-.051.152.012.327.07.437.169.197.177.393.378.52.608.257.47.53.946.68 1.453.237.792.725 1.433 1.143 2.117.31.512.788.878 1.25 1.247.295.233.614.438.936.633.513.309 1.055.518 1.672.524.536.007 1.08-.013 1.6.172a.66.66 0 0 0 .318.026c.58-.101 1.171-.178 1.74-.333 1.884-.51 3.65-1.294 5.25-2.417 1.069-.75 1.928-1.713 2.593-2.827.357-.598.555-1.274.683-1.963a5 5 0 0 0 .061-.478c.033-.372.29-.555.591-.697.144-.068.296-.145.451-.163.597-.062 1.146-.296 1.712-.462 2.082-.61 3.733-1.857 5.143-3.46.471-.536.756-1.17 1.017-1.815.077-.192.076-.42.085-.633.025-.536.036-1.072.05-1.608.007-.269-.012-.539.018-.803.068-.579.322-1.141.144-1.743-.166-.567-.035-1.157-.154-1.738a8 8 0 0 0-.459-1.528c-.542-1.279-1.424-2.237-2.589-2.995a20.3 20.3 0 0 0-4.024-2.023 144 144 0 0 1-4.203-1.642c-.545-.222-1.094-.454-1.563-.832a2.5 2.5 0 0 0-.552-.326c-.94-.414-1.78-.998-2.66-1.515a7.3 7.3 0 0 1-1.035-.761c-.332-.285-.663-.531-1.116-.602-.216-.034-.363-.221-.473-.411-.432-.753-.676-1.569-.835-2.417-.008-.045-.066-.082-.102-.124-.029.037-.077.069-.085.111-.169.892-.305 1.791-.505 2.675-.096.422-.181.837-.185 1.267-.006.811-.228 1.587-.369 2.377-.033.193-.236.362-.453.396q-.715.11-1.433.214c-.21.03-.557-.24-.59-.467-.082-.579-.153-1.16-.233-1.741-.007-.042-.054-.094-.094-.115-.12-.059-.238-.029-.269.092-.159.612-.495 1.037-1.128 1.228-.192.058-.336.264-.522.367-.076.042-.23.029-.303-.022-.615-.445-1.168-.95-1.488-1.657-.332-.732-.69-1.451-1.021-2.182a92 92 0 0 0-2.214-4.47c-.27-.518-.666-.972-1.008-1.453-.317-.447-.304-.694.075-1.143.103-.124.217-.238.33-.352.165-.166.41-.225.584-.127.28.156.58.293.819.499 1.148.991 2.108 2.135 2.811 3.487.198.379.452.73.687 1.088a.2.2 0 0 0 .139.071c.032 0 .087-.054.095-.091.219-1.156.64-2.267.774-3.442.016-.135.145-.288.265-.375.215-.157.455-.289.699-.397.285-.126.492-.485.84-.38.244.074.44.298.673.428a.66.66 0 0 1 .356.499c.04.264.067.528.11.792.006.04.07.109.085.103.096-.039.241-.072.269-.145.186-.497.367-.999.513-1.511.145-.514.254-1.04.37-1.561.073-.327.254-.588.484-.82.154-.156.333-.276.563-.275q.646.008 1.291.036c.219.008.455.191.455.379-.002.868.383 1.666.454 2.519.327.799.33 1.677.635 2.48.23.609.297 1.249.356 1.89.03.341.23.597.49.8.168.132.353.249.544.346.433.219.838.478 1.233.76.347.247.705.502 1.095.672.393.173.8.298 1.144.577.116.095.296.117.45.165 1.079.338 2.106.807 3.159 1.211.452.174.902.336 1.374.462.515.136.998.391 1.487.613.535.244 1.031.57 1.628.692.307.063.597.243.878.399.704.393 1.403.79 2.09 1.207.276.166.543.361.767.588.682.685 1.387 1.356 1.997 2.105.684.84 1.039 1.856 1.322 2.902.348 1.305.411 2.634.374 3.977" fill="#ffffff"/><path d="M86.272 275.007c.013-.178-.005-.347.044-.497.281-.889.19-1.806.221-2.712q.037-1.125.07-2.25c.379-1.019.173-2.131.516-3.158.066-.196.039-.425.052-.639.014-.267.001-.539.042-.801.08-.528.209-1.048.285-1.576s.084-1.061.199-1.59c.204-.939.318-1.896.475-2.846.054-.315.131-.628.186-.943.156-.893.426-1.759.531-2.67.09-.789.395-1.552.59-2.329.21-.827.449-1.653.593-2.491.28-1.636.717-3.234 1.133-4.835a134 134 0 0 1 1.878-6.469c.448-1.427.964-2.836 1.36-4.276.27-.984.662-1.919.99-2.878.31-.911.556-1.846.999-2.71.095-.187.125-.408.193-.61.118-.356.205-.726.368-1.061.915-1.881 1.546-3.879 2.411-5.78.398-.875.73-1.783 1.094-2.675.121-.297.236-.598.382-.885a61 61 0 0 0 1.82-3.937c.474-1.134 1.066-2.221 1.618-3.323.48-.959.976-1.911 1.463-2.865.755-1.481 1.533-2.949 2.569-4.262.7-1.273 1.613-2.4 2.496-3.546.261-.338.552-.656.847-.967.106-.113.262-.18.402-.257.204-.115.614.067.646.299.027.208.061.436.005.631a4.2 4.2 0 0 1-.385.88c-.61 1.072-1.094 2.21-1.783 3.239-.237.354-.411.753-.58 1.147a30 30 0 0 1-1.352 2.722c-.623 1.125-1.193 2.279-1.756 3.434-.255.527-.42 1.096-.666 1.629-.225.486-.473.955-.641 1.47-.181.555-.45 1.091-.741 1.601-.458.797-.777 1.647-1.073 2.506-.417 1.218-.998 2.368-1.491 3.552-.206.494-.406.98-.547 1.502-.196.718-.497 1.413-.796 2.099a14 14 0 0 0-.819 2.423c-.049.206-.139.404-.215.604-.209.55-.434 1.094-.626 1.651-.452 1.315-.887 2.635-1.33 3.952-.136.405-.28.809-.424 1.211-.071.2-.193.393-.219.598-.153 1.234-.653 2.362-1.067 3.516-.109.304-.253.594-.248.923.007.601-.171 1.165-.366 1.72-.3.858-.513 1.742-.781 2.606-.193.616-.099 1.291-.432 1.867-.083.697-.372 1.339-.526 2.015-.226.99-.438 1.981-.759 2.948-.099.3-.076.636-.124.955-.033.209-.062.428-.146.618-.22.489-.467.959-.314 1.532.036.132-.09.303-.13.457-.14.57-.336 1.128-.332 1.727.004.541-.33 1.016-.318 1.566.012.483-.048.964-.249 1.415-.034 1.019-.393 1.994-.422 3.014-.007.215-.011.437-.075.638-.126.412-.244.821-.263 1.254-.02.42-.236.83-.071 1.261-.217.615-.13 1.286-.308 1.892-.218.74-.194 1.479-.23 2.224-.013.267.02.558-.076.797-.391.972-.106 2.032-.435 3.008.335.713-.084 1.368-.2 2.032-.102.578-.274 1.143-.25 1.737.033.814-.195 1.59-.368 2.371-.081.365-.17.713-.059 1.099.092.319-.053.629-.2.921a.68.68 0 0 1-.486.376c-.157.036-.314.079-.47.118a.344.344 0 0 1-.392-.182c-.148-.288-.274-.579-.279-.913-.01-.856-.004-1.712-.3-2.541-.088-.243-.057-.529-.065-.797-.034-.961.02-1.928-.248-2.871-.058-.195-.034-.418-.045-.615m97.363-230.15c0 .964.012 1.928-.003 2.892-.013.86-.312 1.678-.409 2.527-.215.392-.235.833-.235 1.253.004 1.022-.432 1.86-1.013 2.651-.095.129-.211.248-.283.388-.118.237-.344.182-.53.256-.345.134-.622.417-1.026.438-.278.013-.537-.002-.757-.188-.371-.314-.732-.635-.968-1.07a.3.3 0 0 0-.125-.09c-.068.073-.158.149-.177.236-.096.458-.395.912-.057 1.389.006.267.032.534.013.8-.016.21-.092.415-.134.624-.052.26-.162.531-.133.785.094.828-.202 1.592-.367 2.37-.154.727-.463 1.422-.714 2.127a3.35 3.35 0 0 1-.772 1.212c-.31.32-.652.556-1.118.565a.8.8 0 0 0-.317.053c-.335.158-.613.025-.914-.116-.437-.2-.668-.518-.702-.991a1.1 1.1 0 0 0-.083-.304c-.013-.032-.069-.068-.106-.068a.3.3 0 0 0-.146.055c-.042.03-.092.076-.102.122-.139.731-.516 1.409-.502 2.175.007.29-.131.51-.347.69-.199.164-.062.404-.143.599-.388.94-.765 1.885-1.157 2.821-.081.195-.208.369-.318.552-.136.229-.287.451-.411.688-.201.38-.313.833-.594 1.134-.439.47-.778 1.02-1.257 1.452-.28.253-.549.512-.702.87a.7.7 0 0 1-.191.255c-1.036.843-1.877 1.909-3.058 2.588-.557.32-.966.86-1.571 1.117a1.6 1.6 0 0 1-.461.098c-.173.018-.437-.306-.366-.446.506-1.002.922-2.053 1.55-2.993.445-.666.778-1.405 1.34-2 .178-.188.268-.461.396-.696.307-.565.644-1.112.972-1.664a34 34 0 0 0 2.091-4.162c.249-.591.438-1.207.708-1.787.432-.925.675-1.915 1.046-2.86.681-1.735.754-3.328.642-5.171-.013-.214-.055-.425-.066-.64a2.8 2.8 0 0 1 .189-1.256c.162-.395.235-.827.5-1.175.055-.073.188-.143.27-.129.424.068.843.158 1.262.253.273.063.518.217.626.467.275.635.586 1.248.749 1.94.209.88.583 1.72.897 2.57.032.09.14.149.213.223.023-.048.058-.095.065-.145.084-.58.045-1.168.241-1.743.115-.338-.037-.727.04-1.106.062-.299-.058-.63-.05-.948s.107-.637.109-.956c.003-.48-.028-.962-.076-1.44-.021-.212-.073-.415-.013-.631.105-.37.094-.745-.034-1.107s-.148-.733-.152-1.11c-.007-.535-.007-1.071-.033-1.605-.027-.586 0-1.174-.204-1.748-.105-.295-.089-.635-.108-.955-.036-.587-.089-1.163-.252-1.741-.191-.675-.138-1.388-.039-2.077.044-.305.223-.595.367-.878.037-.074.183-.147.267-.135a28 28 0 0 1 1.581.259c.092.017.213.11.241.194.254.816.543 1.628.72 2.461a26 26 0 0 0 1.024 3.54q.737 2.033 1.505 4.055c.026.068.174.094.271.123.012.003.062-.082.078-.132.031-.102.065-.205.073-.31.044-.532.092-1.058.235-1.583.11-.406.093-.85.097-1.278.003-.484.043-.956.16-1.43.087-.36.089-.741.108-1.113.023-.431-.121-.848-.157-1.268-.034-.415.14-.843.143-1.265.001-.477-.081-.953-.135-1.43-.035-.318-.095-.633-.123-.952-.037-.427.009-.87-.09-1.28-.249-1.038-.351-2.11-.717-3.12-.126-.353-.233-.712-.351-1.07-.167-.508-.298-1.032-.511-1.522-.212-.487-.515-.935-.762-1.407-.201-.383-.428-.741-.745-1.04-.278-.263-.462-.59-.619-.933-.089-.193-.033-.423.14-.58a1.105 1.105 0 0 1 1.345-.125c.265.18.477.453.759.593.563.28.891.755 1.2 1.257.505.817 1.086 1.585 1.487 2.472.536 1.18.85 2.417 1.112 3.673.196.941.37 1.886.398 2.855.013.475.173.945.223 1.421.057.531 0 1.083.115 1.6.11.497-.044.954-.041 1.43q.002.4 0 .802zM78.2 245.694c0-.214-.053-.446.008-.641.329-1.043.118-2.145.361-3.183.147-.633.131-1.286.312-1.896.186-.631.182-1.269.27-1.903.119-.845.311-1.68.454-2.523.15-.895.428-1.764.514-2.67a1.15 1.15 0 0 1 .125-.461c.537-.906.58-1.947.768-2.934.181-.956.549-1.844.775-2.779.487-.738.57-1.613.8-2.432.333-1.187.689-2.357 1.17-3.495.418-.983.718-2.016 1.12-3.006.567-1.387 1.028-2.815 1.688-4.164.33-.673.565-1.387.846-2.079a35 35 0 0 1 1.492-3.205c.325-.614.624-1.242.883-1.891a16.4 16.4 0 0 1 1.372-2.725c.174-.27.329-.553.49-.832.318-.557.45-1.192.808-1.743.377-.581.637-1.236.961-1.852.298-.57.618-1.13.917-1.7.424-.806.897-1.582 1.46-2.3.199-.253.378-.512.488-.826.214-.611.607-1.128.971-1.656.456-.661.914-1.319 1.294-2.032.276-.517.536-1.045.986-1.459.19-.173.278-.452.425-.674.207-.312.376-.678.652-.913.874-.746 1.351-1.788 2.076-2.642.728-.857 1.45-1.719 2.18-2.574.799-.937 1.708-1.785 2.596-2.643.264-.254.619-.421.944-.605.064-.035.199.026.288.068.108.05.142.156.115.277-.012.051-.021.106-.044.151-.458.909-.924 1.812-1.49 2.665-.799 1.206-1.549 2.445-2.309 3.676-.901 1.46-1.851 2.894-2.668 4.399-.819 1.51-1.806 2.918-2.607 4.439-.522.995-1.177 1.918-1.692 2.923-.268.524-.595 1.019-.866 1.543-.834 1.621-1.786 3.179-2.587 4.817-.847 1.735-1.757 3.441-2.577 5.189a43 43 0 0 0-1.016 2.358c-.358.898-.819 1.75-1.18 2.641-.561 1.389-1.261 2.72-1.679 4.169-.19.665-.461 1.31-.78 1.936-.265.523-.466 1.083-.649 1.64-.4 1.222-.81 2.437-1.292 3.631-.4.992-.686 2.028-1.012 3.048-.145.459-.242.934-.4 1.386-.897 2.579-1.552 5.226-2.234 7.866-.106.413-.226.824-.338 1.236-.28 1.033-.408 2.097-.637 3.14-.345 1.568-.675 3.137-1.028 4.703-.07.31-.21.607-.322.908-.07.186-.297.301-.529.278-.132-.013-.34-.172-.367-.275-.254-.995-.32-1.486-.306-2.374M323.031 53.678c.79 0 1.269.245 1.753.473a.24.24 0 0 1 .1.124c.136.364.158.731-.012 1.087-.04.085-.148.185-.237.196-.859.11-1.668.378-2.486.652-.978.327-1.886.774-2.761 1.308a49 49 0 0 1-1.533.889c-.656.367-1.299.752-1.889 1.222-.251.199-.534.36-.782.566-.742.616-1.611 1.075-2.255 1.814-.105.12-.236.222-.371.31-1.178.776-2.106 1.83-3.075 2.827-.745.764-1.371 1.646-2.015 2.5-.352.47-.83.854-1.017 1.438-.017.052-.047.139-.03.151a.7.7 0 0 0 .266.13c.102.017.225.01.317-.031.775-.364 1.616-.585 2.333-1.08.307-.213.636-.4 1.021-.47.154-.028.306-.103.442-.184 1.852-1.086 3.727-2.136 5.596-3.196.418-.237.782-.565 1.18-.835.074-.05.205-.05.301-.031.157.032.328.068.456.156.441.303.88.615 1.296.953a.53.53 0 0 1 .152.59c-.11.298-.232.607-.419.858-.288.385-.633.73-.96 1.085-.289.317-.629.597-.875.943-.5.705-1.111 1.309-1.691 1.941-.471.514-.993.98-1.362 1.586-.138.223-.348.408-.545.59-.872.8-1.607 1.72-2.356 2.629-.17.207-.34.42-.534.603-.474.446-.878.935-1.168 1.524a3.5 3.5 0 0 1-.549.789c-.686.758-1.266 1.595-1.841 2.435-.513.752-1.035 1.499-1.503 2.278-.39.646-.568 1.382-.687 2.126a2 2 0 0 0 .111 1.105c.149.351.252.713.21 1.093a1.9 1.9 0 0 1-.174.607.66.66 0 0 1-.499.367c-.325.051-.65.039-.946-.116-1.062-.547-1.793-1.352-1.995-2.566a5 5 0 0 0-.163-.62 1.23 1.23 0 0 1 .011-.786c.197-.612.385-1.225.584-1.837.05-.15.103-.315.201-.437.61-.757.923-1.689 1.519-2.458 1.084-1.399 2.119-2.834 3.189-4.244.225-.298.509-.552.768-.824.743-.778 1.487-1.553 2.105-2.435.08-.113.101-.218.007-.253a.43.43 0 0 0-.296-.008 32 32 0 0 1-3.149 1.242c-.796.27-1.584.27-2.388.179a1.08 1.08 0 0 1-.788-.513 17 17 0 0 1-.639-1.113c-.21-.39-.293-.79-.134-1.234.213-.602.244-1.267.629-1.81.278-.395.549-.796.84-1.18a56 56 0 0 1 1.192-1.52c.237-.291.486-.576.751-.842.913-.91 1.827-1.821 2.76-2.713.426-.406.83-.843 1.366-1.123.139-.075.26-.19.375-.303 1.241-1.207 2.667-2.162 4.152-3.039.463-.273.933-.542 1.359-.867.563-.43 1.184-.753 1.823-1.027 1.334-.573 2.686-1.104 4.086-1.5.354-.106.731-.145.873-.17Zm-39.199 126.846c.063-.529.076-1.072.203-1.587.13-.521.102-1.051.159-1.572.079-.739.01-1.495.002-2.244-.002-.127-.167-.347-.266-.368-.367-.078-.733-.163-1.102-.224-.153-.026-.326-.04-.47.006-.58.182-1.177.116-1.764.144-.699.032-1.4.013-2.099.03-.359.008-.563-.17-.792-.433-.513-.582-.596-1.373-1.044-1.978-.019-.025.016-.1.037-.146a.6.6 0 0 1 .083-.135 2.73 2.73 0 0 1 1.344-.845c1.235-.358 2.442-.81 3.707-1.053.541-.103.994-.396 1.471-.639.116-.059.149-.158.098-.269-.389-.88-.77-1.764-1.179-2.634-.112-.237-.319-.427-.469-.647-.12-.174-.257-.35-.322-.546-.044-.135-.036-.373.052-.449.448-.391.789-.864 1.148-1.33.127-.162.329-.272.508-.387.198-.128.615-.108.766.04.382.376.83.714 1.11 1.159.377.597.899 1.065 1.291 1.63.403.583.904 1.056 1.378 1.566.037.039.071.095.117.108.15.04.314.109.454.084.421-.079.848-.165 1.249-.309.809-.289 1.601-.62 2.403-.929.854-.328 1.731-.554 2.654-.576.341-.008.626.098.859.359.286.318.59.621.885.933.095.102.069.295-.044.436-.578.72-1.255 1.32-2.086 1.74-.383.195-.776.37-1.153.578a1.35 1.35 0 0 0-.56.562c-.076.143-.06.338.062.434.932.744 1.988 1.265 3.096 1.68.306.115.592.245.863.425.64.429.844.462.58 1.438-.097.362-.163.732-.28 1.088a2.6 2.6 0 0 1-.352.714c-.078.108-.296.21-.414.177a16 16 0 0 0-2.207-.428c-.513-.602-1.295-.41-1.935-.642-.298-.108-.631-.126-.952-.151-.869-.068-1.218-.055-1.54.977-.158.505-.458.965-.689 1.45-.185.386-.4.763-.529 1.167a6.6 6.6 0 0 1-.691 1.443c-.11.179-.196.379-.259.578-.108.349.005.784-.33 1.042-.316.241-.733.098-1.094.193-.259.067-.519.14-.784.178-.614.087-1.083-.28-1.118-.87-.02-.321-.004-.643-.004-.963zm-91.219-92.126c.232.02.4.011.55.058.148.045.306.12.411.228.148.153.254.345.369.527.313.497.567 1.043.94 1.489.491.584.869 1.22 1.199 1.897.303.621.381.536.995.224a5.3 5.3 0 0 0 1.08-.695c.632-.55 1.41-.765 2.169-1.03.312-.11.646-.12.943.036.334.176.612.123.894-.095a.7.7 0 0 1 .284-.143c.094-.016.228-.005.293.052.282.248.558.502.807.78a.59.59 0 0 1 .101.607c-.156.4-.364.77-.617 1.122-.778 1.086-1.55 2.18-2.286 3.294-.322.49-.558 1.035-.815 1.565-.039.079-.005.217.04.306.071.141.173.27.275.392.241.289.528.546.73.858.477.733 1.105 1.302 1.807 1.808.528.38 1 .809 1.288 1.413.1.212.115.383-.011.594-.411.695-.964 1.283-1.453 1.918a.344.344 0 0 1-.432.082 9.6 9.6 0 0 1-2.149-1.683c-.645-.66-1.422-1.14-2.231-1.566-.068-.036-.223.008-.288.067-.238.216-.466.453-.558.773-.183.629-.516 1.172-.935 1.672-.136.163-.24.354-.351.538-.578.941-.578.941-1.554 1.233-.496.148-.961.09-1.375-.226-.123-.093-.26-.204-.319-.338a7 7 0 0 1-.312-.912c-.042-.15-.078-.325-.037-.469.131-.466.183-.93.091-1.41a.6.6 0 0 1 .014-.315c.295-.839.117-1.701.138-2.553.003-.12-.156-.359-.248-.384-.464-.129-.925-.279-1.396-.38-.419-.09-.848-.147-1.275-.185-.209-.02-.429.077-.634.05-.206-.028-.408-.127-.597-.222-.165-.084-.12-.268-.159-.416a4.6 4.6 0 0 0-.277-.746c-.137-.3-.187-.612-.213-.936-.049-.585.152-.917.721-1.086.615-.182 1.211-.459 1.882-.402.335.027.628-.13.919-.272.241-.118.479-.247.717-.372.107-.056.202-.291.165-.422-.238-.822-.392-1.662-.545-2.504a5.6 5.6 0 0 0-.428-1.376c-.265-.564-.108-1.043.154-1.524a1.78 1.78 0 0 1 .812-.758c.232-.112.512-.123.707-.163m-66.742-36.164c-.047.095-.072.215-.145.282-.434.4-.853.82-1.325 1.169-.61.45-1.133.986-1.665 1.516-.109.108-.123.333-.024.436.592.621 1.176 1.252 1.787 1.856.353.347.61.745.795 1.195.105.255.058.55-.172.723a5 5 0 0 0-.697.662c-.312.35-.591.756-1.066.927-.401-.261-.811-.514-1.202-.787a2.7 2.7 0 0 1-.47-.441c-.506-.57-1.161-.947-1.77-1.386-.108-.079-.309-.037-.443.07a3.7 3.7 0 0 0-1.019 1.227 1.4 1.4 0 0 1-.845.705c-.613.195-1.221.406-1.836.594-.086.026-.222-.013-.3-.07-.258-.19-.521-.384-.741-.616a1.24 1.24 0 0 1-.3-.553c-.188-.833-.41-1.661-.33-2.532.019-.21-.02-.428-.064-.637a.4.4 0 0 0-.182-.253c-.237-.126-.481-.283-.737-.316-.694-.09-1.346-.384-2.058-.39-.216-.002-.394-.14-.487-.36-.246-.595-.399-1.216-.534-1.844-.118-.55-.029-.752.474-1.016.387-.202.782-.352 1.229-.35q.646 0 1.292-.025c.599-.02.657-.277.675-.693.005-.107.013-.216-.003-.32-.025-.158-.07-.314-.104-.47-.302-1.343-.382-1.892-.27-2.038a8.1 8.1 0 0 1 1.721-1.68q.154-.109.298.016a.6.6 0 0 0 .133.09c.744.359 1.403.798 1.584 1.683.01.05.043.1.079.14.563.647 1.079 1.328 1.6 2.007.169.22.437.316.719.303.211-.01.423-.06.634-.097.157-.027.322-.11.467-.085.631.114 1.274.21 1.881.409.456.15.833.122 1.223-.122.136-.086.291-.139.436-.21.534-.265.874-.182 1.279.285.213.246.37.526.457.84.018.05.02.103.026.156m140.496 50.694c-.48.048-.983.021-1.435.163-.519.162-.94.149-1.331-.232-.633-.243-.965-.813-1.397-1.273-.087-.094-.108-.172-.068-.285.125-.353.292-.668.526-.975.269-.353.542-.646.955-.818.741-.312 1.474-.649 2.217-.956.194-.08.415-.113.627-.13.389-.034.725-.194 1.058-.37.363-.194.543-.493.546-.912.005-.482.055-.978-.118-1.43-.149-.39-.109-.721.077-1.067.152-.284.28-.58.437-.86.225-.402.862-.628 1.272-.422.674.34 1.315.733 1.773 1.357.341.467.563 1.033 1.105 1.336.549-.07.971-.436 1.464-.633.448-.178.892-.44 1.356-.489a3.2 3.2 0 0 0 1.616-.63c.169-.123.41-.08.611.046.278.174.517.38.671.676.107.206.133.431-.008.605-.701.872-1.235 1.878-2.133 2.595-.288.23-.519.536-.681.886-.137.298-.121.42.112.686.537.612 1.22 1.043 1.859 1.529.254.195.5.406.717.641.097.106.184.312.147.433-.189.61-.354 1.234-.741 1.765-.285.39-.676.473-1.147.366a1 1 0 0 1-.298-.118c-.631-.412-1.408-.529-2.017-.993-.216-.164-.512-.135-.784-.134-.234.002-.438.087-.555.271-.658 1.036-1.368 2.045-1.85 3.183-.298.705-.882 1.053-1.573 1.257-.143.042-.324.012-.473-.033-.21-.063-.44-.031-.624-.095-.172-.06-.27-.305-.419-.449-.427-.417-.579-.892-.343-1.457.212-.509.199-1.046.239-1.579.025-.319.094-.634.136-.951.02-.145-.246-.452-.398-.456-.375-.006-.749-.001-1.124-.001zM58.482 209.786c0 .293-.008.882.005 1.471.005.23.15.417.36.488 1.117.37 2.18.929 3.4.932.503.001.924.257 1.346.491.081.045.167.177.16.262-.064.795-.147 1.59-.228 2.384-.02.18-.259.371-.462.373-.486.006-.965.008-1.439-.146-.681-.223-1.39-.255-2.07-.041-1.012.317-1.116.108-1.116 1.389 0 .697-.018 1.393-.02 2.089-.004.544-.588 1.24-1.258 1.246-.268.002-.538.023-.804-.005-.336-.035-.637-.186-.752-.523-.314-.925-.9-1.686-1.45-2.47-.084-.119-.315-.177-.434-.087-.524.399-1.18.51-1.749.803-.55.283-1.043.098-1.537-.113-.192-.082-.334-.27-.522-.373-.532-.29-.728-.726-.712-1.322.006-.217-.052-.421.128-.584.682-.611 1.23-1.339 1.773-2.066.178-.239.167-.48-.058-.726-.361-.396-.704-.819-1.112-1.162-.462-.391-.61-.858-.558-1.425.01-.106.003-.214.01-.322a1.36 1.36 0 0 1 .927-1.199c.152-.049.319-.058.472-.106.209-.064.411-.122.61.024.571.42 1.231.646 1.892.879.36.127.627.034.855-.238q.36-.432.704-.876c.165-.21.32-.431.476-.648.59-.818 1.395-1.132 2.391-1.027.37.039.638.227.66.565.041.589.065 1.178.112 2.063m185.64-45.083a5.4 5.4 0 0 0 1.706-.262c.356-.119.731-.172 1.093-.275.793-.224 1.492-.057 2.099.487.071.065.149.192.132.274-.114.586-.297 1.106-.876 1.458-.741.452-1.461.909-2.346 1.006-.436.246-.941.224-1.403.365-.793.243-1.589.222-2.388.024a5 5 0 0 0-.793-.135c-1.231-.082-2.286-.592-3.213-1.357a12 12 0 0 1-1.484-1.475 5.5 5.5 0 0 1-1.076-1.958c-.327-1.081-.573-2.166-.508-3.31.042-.757.33-1.463.375-2.215a.52.52 0 0 1 .123-.293c.337-.373.429-.861.625-1.297.709-1.582 1.645-3.008 2.891-4.225.5-.488.977-.999 1.495-1.468 1.583-1.435 3.466-2.333 5.48-2.989.963-.083 1.879-.457 2.87-.397a4.8 4.8 0 0 1 1.855.499c.702.346 1.16.94 1.338 1.722.043.193-.216.567-.437.613a.4.4 0 0 1-.159.007c-.102-.029-.221-.049-.294-.115-.829-.759-1.82-.854-2.875-.732-.596.069-1.144.296-1.691.513-1.055.422-2.024 1.003-2.948 1.655-1.104.779-2.063 1.719-2.998 2.685-.185.191-.328.421-.487.639-.571.785-1.031 1.635-1.451 2.504-.398.824-.677 1.68-.552 2.62.021.153-.026.317-.052.475-.018.105-.09.214-.073.311.182.993.309 1.986 1.044 2.803.746.832 1.613 1.391 2.691 1.671.315.082.621.169.948.167.323.005.647.005 1.339.005m-63.705 45.716c-.063-.013-.336-.034-.584-.127-.621-.234-1.26-.239-1.906-.206-.233.011-.399.152-.522.331-.089.129-.146.282-.209.428-.168.393-.351.779-.49 1.182-.214.619-.711.933-1.264 1.155-.456.184-.948.143-1.413-.03a.5.5 0 0 1-.236-.208c-.236-.417-.514-.816-.55-1.318-.011-.158-.063-.312-.105-.465-.045-.164-.345-.351-.51-.317-.472.098-.977.125-1.404.322-.532.244-.937.072-1.349-.19a1.5 1.5 0 0 1-.452-.445c-.171-.268-.289-.571-.432-.857-.095-.192-.2-.385-.086-.601.099-.188.178-.41.332-.539.285-.24.604-.449.934-.621.581-.304 1.037-.749 1.491-1.203.298-.297.327-.656.25-1.041a1.7 1.7 0 0 0-.094-.304c-.324-.787-.544-1.619-1.062-2.321-.079-.108-.095-.335-.037-.46.244-.536.545-1.045 1.01-1.431.082-.068.173-.127.26-.188.162-.116.47-.134.609-.018.247.203.495.407.724.629.656.631 1.301 1.273 1.953 1.909.102.1.348.11.45.032.086-.064.175-.122.256-.193q.243-.21.477-.431c.427-.411.879-.781 1.425-1.032.24-.111.484-.257.657-.449.38-.422.85-.412 1.335-.344.523.072.858.423 1.115.841.073.12.091.33.035.458-.296.685-.588 1.379-1.13 1.92-.434.434-.644.973-.774 1.554a.69.69 0 0 0 .301.689c.138.084.27.216.418.234.692.083 1.116.605 1.656.941.395.246.487.502.316.927-.178.443-.138.948-.397 1.38-.184.286-.437.453-.998.407m165.096-58.091c0-.14-.023-.251.003-.348.194-.726.463-1.415.913-2.034.284-.391.087-.684-.434-.708q-.161-.007-.322-.01c-.322-.011-.647.002-.964-.043-.207-.029-.408-.131-.597-.227-.081-.042-.188-.16-.18-.231.039-.333-.155-.621-.16-.941a78 78 0 0 1-.012-1.281c0-.203.167-.393.377-.456.67-.196 1.342-.371 2.055-.33.321.02.644-.024.965-.045a.6.6 0 0 0 .514-.326c.176-.33.367-.655.506-1.002.242-.603.73-.907 1.298-1.115.139-.051.345-.055.469.011.424.226.834.483 1.233.752.128.085.223.232.304.369.164.276.305.564.457.848.132.246.32.423.606.475.054.009.109.012.157.035.513.233 1.012.291 1.513-.047.173-.117.385-.198.591-.244.556-.128.938.004 1.213.523.05.095.081.198.128.294a.5.5 0 0 1-.073.589c-.388.448-.819.845-1.335 1.146-.137.081-.267.179-.394.274-.167.124-.24.407-.136.576.221.365.454.723.673 1.09a.54.54 0 0 1 .085.299c-.037.324-.155.663-.396.848-.506.39-1.069.704-1.615 1.042-.111.069-.521-.017-.608-.115-.286-.315-.563-.64-.856-.949-.181-.192-.505-.203-.741-.058-.78.479-1.506 1.025-2.145 1.682-.186.191-.379.38-.581.553-.121.103-.264.179-.442.132-.621-.162-1.259-.291-1.788-.684-.123-.093-.2-.243-.281-.344m-146.888-19.463c-.876.07-1.658-.142-2.433-.369a3 3 0 0 1-1.128-.608c-.241-.213-.479-.432-.733-.63a1.16 1.16 0 0 1-.375-.508c-.134-.35-.254-.707-.412-1.046-.164-.35-.201-.713-.229-1.09-.058-.773.149-1.46.466-2.165.832-1.848 2.253-3.121 3.956-4.099.931-.535 1.989-.797 3.045-1.016a.66.66 0 0 1 .319.002q.612.194 1.212.422c.199.075.361.431.341.684-.027.342-.28.717-.548.711-.969-.019-1.735.438-2.532.911a11.5 11.5 0 0 0-2.175 1.642c-.592.574-1.003 1.249-1.315 1.997-.241.579.04 1.36.616 1.655.19.096.395.168.6.223.259.068.534.082.79.16.267.08.519.112.783.003a.9.9 0 0 1 .311-.081c1.391-.017 2.436-.774 3.384-1.654a43 43 0 0 1 2.063-1.79c.161-.13.377-.301.551-.283.309.032.631.14.854.402a1 1 0 0 1 .087.134c.026.046.068.103.06.146-.117.626-.178 1.262-.434 1.861-.5 1.175-1.354 2.034-2.362 2.783-.789.585-1.678.947-2.6 1.248-.72.239-1.45.417-2.162.355m-55.422 31.196c-.963.11-1.913.29-2.762.786-.417.244-.804.537-1.26.711-.225.085-.423.03-.599-.11a3 3 0 0 1-.356-.325c-.283-.309-.312-.738-.087-1.031a4.8 4.8 0 0 1 1.444-1.27c1.547-.874 3.223-1.209 4.977-.979 1.204.158 2.225.745 3.061 1.637.39.415.445.964.646 1.455a.3.3 0 0 1 .003.159c-.183 1.327-.717 2.466-1.831 3.268-.35.251-.792.31-1.219.36-.166.019-.593-.265-.648-.43-.033-.098-.06-.218-.031-.312.078-.254.17-.505.283-.745.251-.533.532-1.053.777-1.589.194-.428-.073-1.02-.513-1.207-.602-.252-1.215-.442-1.885-.378m38.614 3.243c.797-.079 1.419.111 2.032.316.2.066.39.18.568.297.543.361.657.929.323 1.552-.061.117-.276.24-.401.22-.32-.046-.637-.099-.958-.146-.781-.113-1.492.138-2.182.449a1.9 1.9 0 0 0-.52.375c-.344.338-.674.692-1.001 1.048a.564.564 0 0 0 .084.853c.513.388 1.05.745 1.577 1.114.131.091.271.172.4.265.217.156.196.575-.034.684-.194.093-.385.195-.587.269-.253.093-.513.166-.77.241-.102.029-.216.074-.313.057-1.059-.189-2.139-.33-2.852-1.294-.366-.493-.515-1.053-.62-1.636a.8.8 0 0 1 .031-.317c.311-1.213 1.323-2.678 2.38-3.333.451-.28.849-.665 1.409-.766.262-.048.505-.198.765-.241.261-.041.536-.007.669-.007m-77.408-31.966c-.017.422-.03.956-.064 1.489a1.17 1.17 0 0 1-.416.842 1.6 1.6 0 0 1-.56.286.76.76 0 0 1-.836-.335c-.214-.376-.379-.767-.403-1.205-.018-.32-.049-.642-.041-.961.025-.97-.257-1.899-.374-2.852-.025-.206-.143-.399-.198-.603-.4-1.499-1.055-2.909-1.547-4.375-.154-.455-.327-.906-.434-1.373-.082-.362-.089-.743.156-1.078.097-.134.278-.25.394-.216.052.015.107.023.154.045.194.09.421.147.573.285.713.65 1.39 1.325 1.844 2.203a13.7 13.7 0 0 1 1.417 4.562c.022.159.023.322.055.478.065.312.185.619.211.935.047.582.045 1.171.069 1.873m85.653 19.406c-.759.111-1.494-.198-2.201-.618-.579-.345-1.009-.786-1.114-1.487-.039-.26-.258-.512-.146-.771.206-.48.197-1.055.684-1.418.206-.153.318-.428.491-.633.608-.719 1.394-1.163 2.294-1.416a.42.42 0 0 1 .304.059c.176.118.353.248.49.408.432.495.524.553.036 1.055-.337.346-.681.686-1.018 1.034-.11.114-.217.24-.294.378a.4.4 0 0 0-.036.299c.034.084.144.181.232.19.699.082 1.412.11 2.082-.111.877-.29 1.809-.24 2.687-.496.209-.061.424.033.617.139.179.098.291.372.22.544a3.67 3.67 0 0 1-1.568 1.782c-1.125.663-2.332 1.099-3.76 1.062M83.038 130.482c-.013.467-.034 1.109-.044 1.752-.014.854.07 1.717-.241 2.544-.039 1.444-.18 2.886.125 4.323.11.518.12 1.062.14 1.595.015.357-.212.596-.53.732a2 2 0 0 1-.465.126c-.532.08-.86-.077-1.046-.528-.306-.742-.602-1.481-.607-2.311-.003-.528-.138-1.054-.018-1.584-.186-.525-.074-1.044-.003-1.572.063-.477.029-.968.105-1.441.154-.945.328-1.883.857-2.725.342-.542.578-1.149.898-1.706.138-.239.407-.333.701-.297.172.021.34.165.312.299-.043.208-.095.412-.184.793" fill="#ffffff"/></svg>